<?xml version="1.0" standalone="no"?>
<!DOCTYPE svg PUBLIC "-//W3C//DTD SVG 20010904//EN"
 "http://www.w3.org/TR/2001/REC-SVG-20010904/DTD/svg10.dtd">
<svg version="1.0" xmlns="http://www.w3.org/2000/svg"
 width="400.000000pt" height="400.000000pt" viewBox="0 0 400.000000 400.000000"
 preserveAspectRatio="xMidYMid meet">
<metadata>
Created by potrace 1.16, written by Peter Selinger 2001-2019
</metadata>
<g transform="translate(0.000000,400.000000) scale(0.037037,-0.020833)"
fill="#000000" stroke="none">
<path d="M5374 17498 c-36 -25 -53 -57 -61 -115 -3 -24 -9 -43 -13 -43 -4 0
-10 -22 -14 -50 -4 -27 -10 -52 -15 -54 -5 -3 -12 -30 -16 -61 -3 -30 -11 -57
-16 -60 -5 -4 -9 -18 -9 -33 0 -15 -7 -39 -14 -54 -8 -15 -18 -52 -21 -83 -4
-30 -11 -55 -16 -55 -4 0 -11 -21 -15 -47 -3 -27 -10 -52 -14 -58 -4 -5 -11
-31 -14 -57 -4 -26 -11 -50 -16 -53 -5 -3 -12 -30 -15 -60 -4 -30 -11 -55 -15
-55 -4 0 -10 -22 -14 -50 -4 -27 -11 -52 -16 -55 -5 -3 -12 -30 -15 -60 -4
-31 -11 -58 -16 -61 -5 -2 -11 -27 -15 -54 -4 -28 -10 -50 -14 -50 -5 0 -11
-27 -15 -60 -4 -33 -11 -60 -15 -60 -5 0 -12 -21 -16 -47 -3 -27 -10 -52 -14
-58 -4 -5 -11 -30 -15 -55 -4 -25 -11 -47 -14 -50 -4 -3 -12 -30 -18 -60 -20
-95 -35 -155 -43 -165 -4 -5 -11 -34 -15 -62 -4 -29 -11 -55 -16 -58 -4 -3
-11 -28 -15 -55 -4 -28 -10 -50 -14 -50 -4 0 -11 -25 -15 -55 -3 -31 -13 -68
-21 -83 -7 -15 -14 -39 -14 -54 0 -15 -4 -29 -9 -32 -5 -4 -12 -29 -16 -56 -4
-28 -10 -50 -15 -50 -4 0 -10 -22 -14 -50 -4 -27 -11 -52 -16 -55 -5 -3 -12
-26 -16 -52 -4 -25 -13 -58 -20 -72 -8 -14 -14 -36 -14 -48 0 -12 -4 -24 -9
-27 -5 -3 -12 -26 -15 -51 -4 -24 -11 -47 -15 -50 -5 -2 -12 -22 -16 -42 -4
-21 -10 -42 -15 -48 -4 -5 -11 -31 -14 -57 -4 -27 -11 -48 -16 -48 -4 0 -11
-22 -15 -50 -4 -27 -11 -52 -15 -55 -5 -3 -11 -23 -15 -45 -4 -22 -11 -42 -15
-45 -5 -3 -12 -26 -16 -50 -3 -25 -10 -48 -15 -50 -4 -3 -11 -26 -15 -50 -3
-25 -10 -45 -14 -45 -4 0 -10 -22 -14 -50 -4 -27 -11 -52 -15 -55 -5 -3 -12
-23 -16 -45 -4 -22 -10 -42 -15 -45 -4 -3 -11 -28 -15 -55 -4 -28 -11 -50 -15
-50 -5 0 -12 -20 -16 -45 -3 -25 -10 -45 -14 -45 -4 0 -10 -22 -14 -50 -4 -27
-11 -52 -16 -55 -5 -3 -12 -28 -16 -55 -4 -28 -10 -50 -15 -50 -4 0 -11 -20
-15 -45 -3 -25 -10 -45 -14 -45 -4 0 -11 -27 -15 -60 -4 -33 -11 -62 -15 -65
-5 -3 -12 -30 -15 -60 -4 -30 -11 -55 -15 -55 -4 0 -10 -28 -14 -61 -3 -34
-10 -67 -15 -73 -6 -6 -13 -35 -17 -64 -4 -29 -11 -55 -15 -58 -5 -3 -9 -12
-9 -21 0 -15 -107 -123 -169 -171 -31 -24 -141 -172 -141 -190 0 -6 -9 -26
-19 -44 -11 -18 -26 -58 -34 -88 -17 -63 -62 -206 -72 -232 -4 -11 -3 -18 4
-18 7 0 10 -24 9 -67 l-1 -68 -7 55 c-4 40 -8 50 -14 37 -5 -10 -5 -43 -2 -75
16 -144 18 -170 9 -175 -6 -4 -55 -9 -109 -13 -54 -4 -103 -10 -109 -14 -5 -4
-59 -11 -120 -15 -60 -4 -114 -11 -120 -15 -5 -4 -64 -11 -130 -15 -66 -4
-124 -11 -130 -15 -5 -4 -63 -11 -128 -15 -64 -4 -119 -10 -122 -15 -3 -4 -61
-11 -130 -15 -69 -4 -125 -10 -125 -15 0 -4 -47 -10 -105 -14 -58 -4 -118 -14
-133 -22 -15 -7 -33 -14 -40 -14 -27 0 -104 -58 -122 -93 -24 -45 -26 -116 -4
-165 55 -126 65 -140 173 -245 61 -59 116 -107 122 -107 6 0 30 -16 53 -35 24
-19 48 -35 53 -35 5 0 18 -9 28 -20 17 -18 77 -49 311 -161 34 -16 68 -29 77
-29 9 0 18 -4 21 -9 4 -5 24 -12 46 -16 22 -4 42 -11 46 -16 3 -5 17 -9 32 -9
15 0 40 -7 56 -15 16 -8 47 -18 70 -21 22 -4 46 -11 52 -16 7 -5 36 -11 65
-15 30 -3 59 -9 64 -13 6 -4 47 -11 93 -15 45 -4 85 -11 88 -16 3 -5 23 -9 44
-9 l39 0 -5 -37 c-2 -20 -11 -44 -19 -54 -12 -12 -13 -23 -6 -41 5 -13 11 -69
12 -124 3 -85 1 -103 -14 -118 -13 -13 -16 -27 -11 -59 4 -31 3 -38 -5 -27 -8
12 -11 8 -11 -17 0 -19 -8 -41 -19 -52 -23 -23 -33 -67 -35 -148 -1 -38 -5
-58 -15 -61 -10 -3 -12 2 -8 20 5 17 1 27 -13 36 -14 8 -21 24 -22 50 l-1 37
-4 -34 c-3 -20 4 -55 17 -87 21 -51 21 -55 6 -100 -19 -57 -19 -57 -3 -48 10
6 10 4 0 -7 -7 -7 -13 -30 -13 -50 0 -75 -79 -332 -104 -337 -11 -2 -14 -11
-9 -33 3 -18 1 -29 -5 -29 -6 0 -15 -15 -21 -32 -19 -64 -52 -149 -87 -224
-19 -42 -33 -78 -30 -81 11 -11 -37 -81 -92 -133 -101 -96 -187 -198 -201
-237 -8 -20 -19 -43 -26 -49 -17 -18 -45 -138 -53 -237 -9 -101 6 -104 26 -5
23 109 46 189 62 206 8 10 32 42 52 72 21 30 65 84 98 118 56 60 60 62 60 37
0 -15 -7 -39 -14 -53 -27 -48 -56 -124 -56 -144 0 -10 -15 -33 -32 -50 -18
-17 -27 -28 -20 -24 6 4 12 2 12 -4 0 -17 -42 -100 -51 -100 -6 0 -62 -110
-65 -130 -5 -33 -18 -59 -27 -53 -7 4 -8 0 -3 -13 10 -26 -3 -135 -19 -157 -8
-11 -40 -23 -84 -31 -39 -8 -83 -21 -97 -31 -49 -32 -66 -5 -40 68 8 20 11 37
7 37 -8 0 -31 -50 -31 -67 0 -31 -31 -73 -53 -73 -13 0 -27 -4 -32 -8 -6 -4
-28 -14 -50 -21 -67 -22 -275 -111 -357 -152 -89 -45 -259 -154 -303 -196 -17
-15 -50 -53 -75 -83 -25 -30 -47 -57 -50 -60 -3 -3 -28 -34 -56 -70 -53 -69
-94 -135 -164 -265 -23 -44 -48 -89 -56 -100 -7 -11 -27 -58 -44 -105 -17 -47
-52 -130 -79 -185 -51 -107 -56 -118 -125 -297 -64 -164 -95 -263 -105 -333
-5 -33 -19 -82 -31 -109 -23 -55 -84 -259 -96 -321 -4 -22 -19 -67 -34 -100
-41 -91 -48 -113 -64 -205 -25 -136 -38 -327 -31 -440 5 -85 2 -138 -19 -280
-13 -96 -32 -231 -41 -300 -9 -69 -22 -165 -30 -215 -8 -49 -24 -148 -35 -220
-11 -71 -25 -157 -30 -190 -30 -179 -44 -265 -80 -515 -22 -151 -42 -291 -45
-310 -35 -239 -48 -336 -69 -515 -60 -510 -72 -648 -81 -925 -3 -96 -10 -274
-15 -395 -11 -262 -19 -538 -25 -807 l-4 -198 2279 0 c1317 0 2281 4 2285 9
11 18 100 22 158 6 50 -13 195 -15 1101 -15 1149 0 1056 -5 1056 60 0 15 7 41
15 56 8 16 12 36 10 45 -4 10 8 30 30 52 19 19 35 41 35 49 0 7 9 19 20 26 12
7 18 17 15 22 -3 6 3 10 14 10 24 0 62 30 55 42 -3 4 8 11 25 14 17 4 31 10
31 15 0 5 7 9 15 9 20 0 19 -17 -2 -29 -29 -16 -10 -21 30 -9 37 11 37 12 37
65 0 29 5 53 10 53 6 0 10 18 10 40 0 22 -4 40 -10 40 -5 0 -10 5 -10 10 0 6
8 5 20 -2 14 -9 20 -25 22 -53 l1 -40 7 45 c6 42 4 47 -27 78 -47 47 -44 62
10 47 23 -6 49 -15 57 -18 8 -4 54 -18 103 -32 80 -23 197 -78 205 -97 2 -4
20 -10 40 -14 46 -9 99 -30 107 -44 3 -5 16 -10 29 -10 12 0 27 -5 34 -12 13
-13 72 -31 157 -48 28 -5 100 -26 160 -45 61 -19 151 -46 200 -60 100 -29 369
-112 400 -125 11 -4 94 -31 185 -60 91 -29 175 -59 188 -67 12 -7 26 -11 31
-9 11 7 28 124 46 322 11 109 14 225 10 369 -19 783 -21 1052 -12 1445 9 397
10 1051 2 1335 -7 234 -6 281 9 353 60 295 39 688 -55 1022 -16 58 -45 161
-63 230 -19 69 -46 157 -60 195 -48 127 -66 184 -66 208 0 13 -9 50 -20 83
-20 57 -52 183 -65 254 -18 101 -112 363 -192 540 -56 122 -113 243 -130 275
-8 17 -47 92 -85 168 -39 76 -76 144 -82 150 -6 7 -29 37 -52 67 -158 213
-347 361 -579 455 -38 16 -79 35 -90 42 -11 7 -25 13 -33 13 -7 0 -74 30 -149
66 -91 45 -137 73 -141 86 -4 15 -7 16 -13 7 -18 -30 -22 7 -11 114 38 365 40
379 53 372 5 -4 9 6 9 22 0 21 -3 24 -9 14 -8 -12 -11 -10 -16 10 -3 13 -4 35
-1 49 2 14 5 36 5 50 1 20 3 22 11 10 13 -20 14 75 1 99 -8 15 -17 51 -20 84
-1 5 -6 5 -12 1 -7 -4 -7 1 1 16 11 21 10 22 -12 17 -19 -5 -27 -1 -42 24 -9
16 -35 46 -57 66 -57 53 -51 83 9 46 23 -14 22 -11 -9 21 -32 34 -38 36 -63
26 -24 -9 -31 -7 -47 11 -10 11 -15 27 -12 35 3 8 0 14 -5 14 -6 0 -30 18 -54
39 -24 22 -52 48 -63 58 -12 10 -31 31 -43 47 l-22 29 20 19 c11 10 20 25 20
33 0 8 5 15 10 15 6 0 10 -4 10 -8 0 -16 35 -49 60 -57 22 -7 23 -6 8 9 -9 9
-19 16 -23 16 -14 0 -36 31 -29 41 4 8 3 9 -4 5 -7 -4 -12 -1 -12 6 0 8 -16
29 -35 48 -19 19 -35 39 -35 45 0 6 -9 17 -20 25 -18 13 -20 22 -15 65 3 28 2
71 -3 97 -7 33 -6 49 2 52 8 3 7 7 -2 13 -8 6 -12 37 -12 94 1 120 1 119 15
179 7 30 16 78 19 105 3 28 9 64 13 80 4 17 7 45 7 63 0 18 2 28 6 22 10 -17
29 126 25 193 -6 96 -11 137 -19 144 -9 9 -8 23 2 23 18 0 42 -81 55 -185 12
-98 14 -106 22 -71 5 23 3 60 -4 95 -20 90 -33 136 -41 141 -13 9 -18 75 -7
91 14 19 77 42 77 28 0 -5 4 -9 10 -9 5 0 9 10 7 23 -1 13 3 21 11 19 6 -1 12
3 12 9 0 6 -11 8 -29 4 -21 -4 -30 -2 -35 10 -3 9 -4 21 0 26 7 13 -20 11 -33
-2 -7 -7 -14 -1 -23 21 -11 27 -11 32 6 45 17 12 20 11 25 -3 4 -9 5 -20 2
-24 -2 -5 3 -8 13 -8 13 0 14 3 5 14 -16 19 11 40 40 31 14 -5 19 -4 15 4 -4
7 1 11 13 11 12 0 21 5 21 11 0 7 -9 9 -22 6 -13 -4 -29 0 -39 9 -16 15 -17
14 -12 -5 5 -19 1 -21 -47 -21 -48 0 -51 2 -48 23 2 17 11 23 36 25 17 2 32 9
32 16 0 20 -12 27 -27 14 -19 -16 -33 2 -22 30 6 16 17 22 37 22 15 0 32 4 37
9 6 5 26 12 46 16 31 6 36 4 47 -21 7 -14 15 -24 18 -21 3 3 -2 17 -11 31 -17
25 -17 26 10 36 14 5 35 10 45 10 10 0 21 4 24 9 3 5 22 12 42 16 20 3 44 10
53 15 24 13 139 50 156 50 8 0 15 5 15 10 0 6 8 10 18 10 9 0 29 6 44 14 15 8
41 17 58 21 17 4 43 13 58 21 15 8 35 14 45 14 9 0 17 4 17 9 0 5 15 13 33 16
17 4 37 11 42 15 6 4 25 11 43 15 17 3 32 11 32 16 0 5 10 9 23 9 12 0 31 6
42 14 11 7 35 17 53 21 17 3 32 11 32 16 0 5 10 9 23 9 13 0 32 7 43 15 10 8
25 15 32 15 13 0 51 15 117 45 17 8 43 17 59 21 16 4 41 13 55 20 14 8 31 14
38 14 6 0 24 6 40 14 15 8 42 20 58 26 17 7 37 16 45 21 8 4 39 20 68 34 28
14 52 29 52 34 0 5 12 12 26 15 29 8 124 92 124 111 0 6 11 22 25 35 23 22 25
30 25 122 0 85 -2 100 -17 105 -10 4 -25 14 -33 22 -19 20 -50 40 -72 47 -10
4 -18 10 -18 14 0 4 -33 11 -72 15 -40 3 -75 11 -79 16 -3 5 -79 12 -170 16
-90 3 -169 10 -176 15 -6 5 -44 8 -82 7 -39 -1 -74 1 -78 4 -3 4 -39 7 -79 7
-40 0 -75 4 -78 9 -3 4 -64 12 -136 16 -71 4 -132 10 -135 15 -3 4 -42 11 -87
15 -46 4 -88 11 -94 16 -6 5 -24 8 -40 8 -43 -2 -137 12 -150 22 -6 5 -22 9
-35 9 -13 0 -64 3 -112 6 -106 8 -122 21 -112 100 11 95 12 154 3 154 -5 0
-15 15 -23 33 -7 18 -29 56 -48 84 -25 37 -33 59 -30 77 5 22 0 28 -32 42 -44
18 -69 40 -61 53 8 13 -37 89 -63 107 -25 18 -28 44 -5 44 24 0 13 42 -14 56
-27 13 -47 47 -57 96 -4 18 -11 38 -15 43 -4 6 -11 26 -15 45 -4 19 -11 40
-15 45 -4 6 -11 26 -15 45 -4 19 -11 40 -15 45 -4 6 -11 26 -15 45 -4 19 -11
40 -15 45 -4 6 -11 26 -15 45 -4 19 -11 41 -16 50 -13 26 -22 55 -20 67 1 6
-3 14 -8 18 -6 3 -13 28 -17 55 -4 28 -10 50 -14 50 -4 0 -11 24 -14 52 -4 29
-11 57 -15 63 -5 5 -11 37 -15 69 -4 33 -11 64 -15 70 -5 6 -12 34 -16 61 -3
28 -10 59 -15 70 -11 25 -24 96 -21 113 1 6 -2 12 -7 12 -5 0 -13 28 -16 62
-4 35 -11 67 -16 73 -4 5 -13 37 -18 70 -15 83 -32 156 -42 180 -5 11 -12 46
-15 77 -4 32 -10 60 -14 63 -5 2 -11 32 -15 64 -4 33 -11 63 -15 66 -5 3 -12
33 -16 67 -4 35 -11 68 -15 73 -4 6 -11 34 -15 62 -4 29 -10 55 -15 58 -4 3
-11 34 -15 70 -3 36 -10 65 -15 65 -4 0 -11 25 -15 55 -3 30 -11 57 -16 60 -5
4 -9 19 -9 35 0 16 -4 31 -9 34 -5 4 -12 24 -16 46 -4 22 -10 42 -15 45 -4 3
-11 22 -15 42 -4 21 -10 43 -14 48 -5 6 -14 38 -21 73 -7 34 -16 65 -21 68 -4
2 -11 25 -15 49 -3 25 -10 45 -15 45 -4 0 -11 20 -15 45 -3 25 -10 45 -15 45
-4 0 -11 21 -15 48 -3 26 -10 52 -14 57 -4 6 -11 26 -15 45 -4 19 -11 40 -15
45 -4 6 -11 26 -15 45 -4 19 -11 41 -16 50 -6 13 -17 38 -24 60 -1 3 -5 19 -9
35 -4 17 -11 38 -16 47 -6 10 -7 24 -4 33 3 8 1 15 -5 15 -6 0 -11 10 -11 23
0 12 -7 35 -15 51 -8 15 -15 35 -15 43 0 8 -6 29 -13 46 -18 43 -44 124 -52
167 -4 19 -11 40 -15 45 -4 6 -11 26 -15 45 -4 19 -11 40 -15 45 -4 6 -11 26
-15 45 -4 19 -11 40 -15 45 -10 13 -25 76 -21 93 1 6 -2 12 -7 12 -6 0 -13 16
-17 36 -3 20 -11 45 -16 55 -5 11 -14 28 -19 39 -6 12 -8 25 -5 30 3 5 1 11
-4 14 -5 3 -12 26 -15 51 -4 25 -11 45 -15 45 -5 0 -11 22 -15 50 -4 27 -11
52 -15 55 -5 3 -12 23 -16 45 -4 22 -10 42 -15 45 -5 3 -11 23 -15 45 -4 22
-10 42 -15 45 -4 3 -11 22 -15 42 -7 39 -42 86 -56 77 -5 -3 -9 0 -9 5 0 20
-74 12 -106 -11z m219 -386 c35 -79 83 -250 73 -260 -3 -3 -12 0 -20 7 -11 9
-22 7 -50 -10 -53 -31 -66 -21 -66 48 0 58 0 58 -47 93 -62 46 -67 67 -16 75
65 11 71 15 83 50 6 19 15 35 19 35 4 0 15 -17 24 -38z m-75 -978 c3 -19 -52
-135 -93 -198 -15 -22 -14 -26 17 -77 18 -30 50 -78 71 -108 20 -30 37 -63 37
-74 0 -19 -4 -19 -77 -12 -43 5 -113 8 -156 7 l-77 -1 -52 -56 c-28 -31 -64
-76 -80 -100 -33 -50 -56 -71 -66 -61 -13 14 -8 284 6 298 6 6 12 24 12 38 0
14 14 84 31 155 16 72 30 138 30 147 0 32 22 38 69 17 25 -11 51 -18 60 -15 8
2 53 18 100 35 101 36 163 38 168 5z m287 -1131 c28 -53 34 -58 88 -76 31 -10
57 -25 57 -32 0 -7 -16 -25 -36 -40 -33 -25 -36 -31 -31 -64 3 -20 9 -46 13
-58 11 -37 -18 -37 -75 0 l-52 35 -51 -20 c-71 -27 -79 -21 -72 49 6 62 -3 81
-61 119 -31 20 -32 42 -2 48 64 13 83 17 96 18 7 1 22 15 32 32 41 70 52 69
94 -11z m90 -718 c17 -6 55 -20 85 -30 30 -10 76 -29 101 -42 l46 -25 58 41
c33 23 63 40 68 38 6 -2 11 -16 12 -33 2 -16 5 -47 8 -69 4 -22 11 -76 17
-120 6 -44 15 -105 20 -135 5 -30 14 -98 20 -150 18 -164 30 -222 56 -272 17
-31 18 -42 4 -33 -5 3 -10 2 -10 -4 0 -5 5 -13 10 -16 6 -3 10 -11 10 -17 0
-14 -47 37 -151 165 l-80 97 -154 0 c-205 0 -204 -2 -103 189 l55 104 -60 106
c-33 58 -70 120 -83 138 -26 34 -32 78 -11 86 14 6 38 1 82 -18z m-544 -331
c20 -18 48 -21 101 -10 l38 8 -15 -42 c-14 -40 -14 -44 6 -71 25 -36 20 -45
-28 -47 -27 -1 -43 -9 -58 -28 -27 -34 -56 -29 -67 12 -6 26 -14 33 -43 38
-50 10 -53 25 -10 61 23 19 35 36 31 43 -9 16 2 52 16 52 6 0 19 -7 29 -16z
m-498 -549 c-5 -29 -1 -41 18 -61 20 -21 21 -27 9 -34 -8 -5 -27 -10 -42 -10
-19 0 -32 -9 -45 -30 -21 -37 -36 -38 -51 -5 -8 17 -20 25 -37 25 -30 0 -31 9
-6 37 11 11 21 38 23 59 3 38 4 39 38 36 19 -1 42 2 50 8 8 5 23 10 32 10 14
0 16 -7 11 -35z m827 -395 c6 -12 26 -21 55 -26 35 -5 45 -10 45 -25 0 -11 -4
-19 -9 -19 -16 0 -22 -33 -11 -66 16 -47 7 -54 -42 -39 -39 11 -46 10 -71 -7
-35 -25 -57 -17 -57 21 0 30 -16 53 -51 71 -26 15 -24 40 4 40 28 1 60 27 75
63 10 24 15 26 32 17 11 -6 24 -19 30 -30z m-715 -235 l54 -34 68 25 c92 35
123 40 123 21 0 -9 -11 -47 -25 -85 -14 -38 -25 -77 -25 -85 0 -9 18 -44 40
-78 22 -34 40 -66 40 -70 0 -17 -37 -27 -114 -32 -43 -3 -82 -10 -85 -16 -24
-39 -87 -101 -101 -101 -17 0 -21 8 -52 94 -13 38 -17 41 -78 57 -78 20 -100
29 -100 39 0 8 54 59 108 100 30 24 33 32 41 102 5 42 12 81 15 87 12 18 35
13 91 -24z m1561 -141 c6 -21 20 -67 30 -102 13 -46 28 -73 55 -100 21 -20 41
-49 44 -64 4 -14 13 -32 21 -39 13 -10 9 -15 -23 -33 -34 -20 -38 -26 -38 -61
0 -22 3 -56 7 -76 8 -46 -6 -72 -26 -46 -8 10 -36 43 -62 74 -27 31 -52 61
-56 67 -5 7 -46 11 -110 11 l-103 0 2 29 c1 16 11 47 21 70 37 80 36 84 -28
181 -85 126 -82 132 41 89 116 -39 110 -40 154 5 21 23 44 40 49 38 5 -2 15
-21 22 -43z m-318 -711 l162 -5 0 -40 c0 -31 4 -41 19 -45 17 -4 32 -38 35
-75 1 -4 26 -28 56 -54 30 -26 65 -62 77 -80 22 -32 22 -33 3 -39 -11 -3 -47
-1 -80 6 -46 9 -74 9 -113 1 -29 -7 -72 -16 -97 -21 -25 -5 -53 -12 -63 -16
-14 -6 -20 -2 -24 13 -5 19 -10 21 -52 15 -25 -3 -62 -14 -82 -24 -20 -10 -46
-15 -58 -12 -16 4 -27 -1 -37 -16 -8 -11 -28 -28 -44 -36 -40 -21 -168 -25
-197 -7 -12 7 -27 11 -32 8 -15 -10 -128 25 -150 45 -10 10 -35 21 -54 24 -20
4 -44 16 -54 27 -30 33 -65 45 -121 42 -36 -2 -58 -8 -66 -19 -11 -16 -19 -15
-97 9 -46 14 -124 29 -174 33 -49 5 -90 13 -90 18 0 6 14 17 32 25 25 12 31
20 27 36 -7 26 14 43 27 23 5 -8 9 -9 9 -3 0 7 27 13 69 16 39 2 72 6 75 9 3
2 1 21 -3 42 -8 31 -6 37 8 38 14 1 13 2 -2 6 -39 10 -1 23 69 23 41 0 74 4
74 9 0 4 62 9 138 11 469 8 588 13 597 21 6 6 19 7 30 3 11 -4 93 -9 183 -11z
m-412 -658 c9 -8 24 -15 34 -15 37 0 90 -106 90 -181 0 -15 5 -31 10 -34 6 -3
10 -17 10 -31 0 -14 8 -37 17 -52 31 -49 95 -121 113 -127 9 -3 25 -13 36 -23
129 -114 186 -148 257 -154 31 -3 57 -1 57 3 0 4 30 10 68 14 93 9 99 12 105
44 7 35 51 56 88 43 44 -17 112 -16 156 3 37 15 42 22 45 54 l4 36 12 -28 c7
-16 12 -59 12 -96 0 -37 5 -72 11 -78 18 -18 26 -146 18 -268 -5 -81 -19 -159
-53 -288 -100 -386 -146 -504 -280 -712 -22 -33 -45 -64 -53 -68 -7 -4 -13
-14 -13 -22 0 -7 -13 -25 -30 -38 -16 -14 -30 -28 -30 -31 0 -2 -19 -25 -42
-50 -42 -47 -68 -62 -46 -27 7 11 15 18 19 16 3 -3 21 17 40 43 18 26 36 49
40 52 4 3 10 17 14 31 3 14 18 38 32 54 15 15 27 39 28 52 0 13 7 28 15 33 8
5 11 13 6 17 -5 4 -11 2 -13 -4 -7 -20 -23 -15 -23 6 0 29 11 51 25 51 7 0 15
10 18 23 8 31 60 99 55 72 -2 -13 3 -20 12 -20 8 0 15 7 16 15 3 42 5 48 22
53 12 2 22 17 26 38 3 18 14 41 23 52 12 13 17 33 15 70 -1 37 1 48 8 37 7
-11 10 -7 10 18 0 34 -14 43 -24 16 -9 -24 -26 -6 -26 27 0 20 -5 29 -16 29
-14 0 -15 2 -3 17 12 14 12 17 0 21 -7 2 -21 13 -29 23 -9 11 -25 19 -36 19
-11 0 -16 3 -13 6 11 11 -59 43 -82 37 -30 -8 -71 5 -71 22 0 8 -7 15 -15 15
-8 0 -15 5 -15 10 0 19 -45 72 -68 81 -17 6 -22 14 -18 27 4 13 -5 28 -29 51
-19 17 -35 35 -35 40 0 4 -16 24 -35 44 -19 20 -35 40 -35 46 0 5 -16 19 -35
31 -19 11 -50 37 -69 56 -64 64 -99 26 -47 -51 31 -46 61 -122 61 -155 0 -38
-59 -15 -132 53 -24 22 -36 27 -57 22 -14 -4 -27 -10 -29 -14 -2 -6 -47 5
-132 35 -8 3 -17 5 -20 6 -3 0 -21 7 -40 15 -119 51 -151 49 -184 -12 -23 -42
-65 -65 -120 -65 -41 0 -46 3 -52 27 -4 15 -2 34 6 47 8 12 19 31 25 44 7 12
24 32 38 45 15 12 29 36 33 53 6 30 4 31 -33 37 -31 6 -45 2 -77 -21 -22 -15
-51 -48 -65 -74 -14 -25 -34 -55 -43 -65 -10 -11 -18 -25 -18 -32 0 -6 -9 -29
-20 -51 -11 -22 -20 -51 -20 -65 0 -14 -4 -25 -9 -25 -5 0 -21 -21 -36 -46
-15 -25 -29 -43 -32 -40 -3 3 -19 -2 -35 -10 -43 -22 -157 -25 -168 -4 -6 12
-26 16 -76 18 -37 1 -72 6 -78 12 -5 5 -18 10 -28 10 -10 0 -18 5 -18 10 0 6
-6 10 -14 10 -7 0 -19 7 -27 16 -7 9 -21 13 -35 10 -25 -7 -84 11 -84 25 0 5
-5 9 -10 9 -14 0 -65 52 -74 75 -3 10 -2 23 4 30 7 9 3 20 -15 39 -13 14 -27
42 -31 61 -7 37 -34 49 -34 15 0 -11 -4 -20 -9 -20 -5 0 -12 -8 -14 -17 -3
-10 -5 27 -6 83 0 55 2 104 7 108 4 4 8 20 9 34 3 45 19 115 33 145 14 29 37
32 32 4 -1 -8 2 -18 8 -22 5 -3 10 0 10 7 0 8 16 14 45 16 25 1 45 -2 45 -8 0
-5 5 -10 10 -10 6 0 30 -9 53 -21 79 -39 353 -51 439 -20 29 11 72 25 96 31
23 6 42 15 42 20 0 5 25 14 55 20 31 6 68 18 83 26 15 8 36 14 47 14 31 0 202
181 220 233 8 23 15 50 15 60 0 10 8 17 20 17 12 0 20 7 20 18 0 9 13 23 28
29 15 7 39 26 52 42 29 35 36 37 56 16z m-511 -1106 c4 -5 8 -41 10 -79 2 -45
11 -82 26 -111 14 -29 18 -44 10 -47 -6 -2 -9 -8 -6 -12 3 -5 12 -7 20 -3 9 3
15 -1 15 -10 0 -10 -16 -19 -47 -25 -55 -12 -84 -3 -59 17 17 14 22 32 9 30
-37 -6 -63 3 -63 21 0 21 -24 28 -35 10 -15 -24 -27 -8 -22 30 4 40 48 118 74
133 7 4 13 16 13 27 0 26 42 41 55 19z m875 -5 c0 -9 7 -22 15 -28 8 -6 16
-20 18 -31 2 -11 8 -29 14 -40 43 -78 72 -229 50 -259 -21 -27 -112 -26 -187
2 -112 41 -157 50 -222 45 l-63 -4 24 20 c13 12 28 21 35 21 15 0 46 36 38 45
-8 7 48 54 66 55 7 0 34 11 60 24 48 25 73 60 87 121 4 16 12 33 18 37 21 13
47 9 47 -8z m6 -582 c19 -12 75 -112 102 -182 16 -40 27 -92 29 -137 4 -63 2
-75 -22 -113 -15 -23 -29 -40 -31 -37 -3 3 -21 -11 -40 -29 -19 -20 -39 -32
-46 -28 -7 4 -8 3 -4 -4 9 -14 -63 -52 -101 -53 -15 0 -37 -4 -48 -8 -12 -5
-26 -4 -34 3 -8 6 -46 11 -85 11 -53 1 -83 7 -115 23 -25 12 -55 22 -68 22
-13 0 -23 5 -23 10 0 11 -70 -14 -80 -28 -10 -15 -75 -41 -78 -32 -2 6 -21 10
-42 10 -21 0 -42 5 -45 10 -3 6 -16 10 -27 10 -43 0 -143 40 -143 57 -1 19
-18 33 -41 33 -19 0 -24 5 -24 25 0 14 -4 25 -10 25 -22 0 -50 45 -50 82 0 21
-4 38 -10 38 -5 0 -10 -6 -10 -14 0 -7 -10 -13 -22 -12 -16 1 -23 7 -21 19 1
13 -4 17 -15 13 -10 -4 -2 8 17 25 18 17 36 27 40 23 3 -5 25 -19 48 -31 43
-23 69 -22 89 5 8 11 20 13 45 8 19 -4 43 -8 55 -9 11 -1 28 -8 37 -15 11 -9
41 -13 89 -12 40 0 174 2 298 3 229 2 279 10 266 42 -2 7 -2 16 2 19 7 7 11
25 19 73 5 30 3 32 -33 38 -66 11 -72 15 -76 46 -5 33 22 62 48 52 8 -3 14 0
14 5 0 17 124 29 146 14z m1391 -1420 c1 -42 -5 -117 -12 -167 -8 -49 -17
-121 -20 -160 -8 -94 -15 -126 -26 -119 -12 7 -12 184 0 184 5 0 7 17 4 38 -2
20 2 62 10 92 8 30 11 65 8 79 -4 13 -1 49 5 80 7 31 13 58 13 60 1 2 4 1 9
-3 4 -4 8 -42 9 -84z m-2197 -172 c0 -17 7 -20 40 -20 36 0 40 -2 40 -25 0
-15 -12 -37 -28 -53 -24 -23 -27 -33 -24 -74 3 -41 7 -48 26 -48 19 -1 18 -3
-12 -30 -18 -17 -37 -30 -42 -30 -5 0 -24 13 -42 30 l-33 29 38 1 c20 0 37 5
37 10 0 15 -77 12 -83 -2 -3 -7 -2 6 0 30 4 28 2 42 -6 42 -6 0 -11 -7 -11
-15 0 -8 -7 -15 -15 -15 -8 0 -15 7 -15 15 0 8 -6 15 -12 15 -7 0 6 18 30 40
24 22 46 40 49 40 4 0 17 -10 29 -21 21 -19 24 -20 38 -6 23 22 20 27 -14 27
-28 0 -30 2 -30 40 0 33 3 40 20 40 13 0 20 -7 20 -20z m-77 -310 c41 -40 64
-70 55 -70 -8 0 -21 -7 -28 -15 -7 -8 -16 -15 -21 -15 -5 0 -9 7 -9 15 0 8 -7
15 -15 15 -9 0 -18 6 -21 14 -8 20 -36 29 -44 15 -5 -7 -19 -1 -41 20 l-34 31
33 30 c18 17 37 30 43 30 6 0 43 -31 82 -70z m-18 -710 c-3 -5 -1 -11 4 -14 5
-3 11 3 14 15 5 18 8 19 26 7 20 -12 20 -45 1 -58 -4 -3 -6 -18 -5 -35 3 -46
4 -48 18 -37 25 21 37 -3 41 -87 4 -81 16 -126 16 -63 0 18 5 32 10 32 7 0 10
-20 9 -50 -3 -54 14 -87 31 -60 7 11 10 8 16 -14 4 -16 3 -31 -2 -35 -5 -3
-10 -26 -11 -50 -1 -28 -9 -51 -23 -65 -11 -12 -20 -30 -20 -39 0 -9 -4 -19
-10 -22 -5 -3 -10 -15 -10 -25 0 -10 -6 -25 -13 -32 -7 -7 -27 -39 -45 -72
l-31 -59 34 6 c31 5 34 4 20 -9 -18 -18 -18 -21 -6 -29 5 -3 16 2 25 10 13 14
16 13 27 -6 10 -19 9 -21 -5 -16 -23 9 -20 -32 4 -62 16 -18 23 -21 34 -12 11
9 17 2 30 -36 10 -27 21 -56 27 -65 5 -10 9 -25 9 -33 0 -8 9 -15 19 -15 14 0
21 8 24 28 3 17 4 11 5 -18 1 -29 -1 -40 -7 -31 -10 16 -31 6 -31 -14 0 -8 9
-19 21 -25 17 -10 21 -8 26 9 3 12 12 21 19 21 8 0 14 5 14 10 0 6 8 10 17 10
14 0 13 -3 -5 -20 -30 -28 -28 -42 5 -38 26 3 28 0 31 -38 2 -34 -1 -42 -23
-54 -27 -14 -33 -36 -13 -42 14 -5 38 15 38 31 0 6 5 11 10 11 6 0 10 -9 10
-19 0 -11 -4 -23 -10 -26 -20 -12 -9 -34 20 -40 17 -4 30 -13 30 -21 0 -8 10
-14 25 -14 29 0 32 -8 8 -25 -16 -12 -16 -14 1 -40 12 -19 21 -24 28 -17 15
15 38 3 38 -19 0 -10 -4 -19 -9 -19 -5 0 -11 -9 -14 -20 -3 -13 0 -20 10 -20
9 0 13 6 10 14 -3 8 0 16 6 19 8 3 12 -10 10 -42 0 -25 1 -34 4 -18 2 15 9 27
14 27 5 0 9 -12 10 -27 l1 -28 7 25 c12 38 34 70 49 70 17 0 6 -40 -17 -60
-12 -11 -16 -27 -13 -62 2 -27 8 -48 13 -48 5 0 9 -6 9 -13 0 -8 -7 -14 -15
-14 -9 0 -15 10 -15 24 0 14 -4 21 -10 18 -6 -4 -9 -44 -8 -93 2 -76 2 -79 5
-24 2 34 8 62 13 62 6 0 10 -10 10 -22 l1 -23 13 24 c11 20 14 21 20 6 3 -9 4
-21 0 -26 -3 -5 0 -9 6 -9 8 0 10 13 5 39 -4 23 -2 48 4 58 10 17 10 17 11 0
0 -9 6 -26 12 -37 10 -16 10 -24 0 -40 -12 -20 -6 -25 22 -14 9 3 16 15 16 25
0 32 18 21 41 -26 18 -36 20 -47 9 -60 -8 -9 -8 -15 -2 -15 6 0 14 -16 18 -35
9 -51 48 -71 64 -32 7 17 9 18 9 5 1 -25 21 -23 21 2 0 11 7 20 15 20 8 0 15
5 15 10 0 6 7 10 15 10 8 0 15 -5 15 -12 0 -9 3 -9 12 0 7 7 20 12 30 12 10 0
18 6 18 13 0 7 9 18 20 25 18 11 22 9 32 -13 10 -23 30 -31 68 -26 53 6 93 1
104 -14 8 -11 31 -18 65 -21 46 -4 53 -2 58 16 3 11 12 20 19 20 16 0 19 -27
4 -32 -6 -2 3 -18 19 -35 16 -18 32 -42 36 -53 9 -29 38 -27 30 3 -5 17 2 12
29 -18 20 -22 38 -49 42 -61 6 -21 61 -54 92 -54 9 0 30 -13 47 -30 115 -113
124 -120 159 -120 19 0 38 5 41 10 4 6 11 8 16 5 5 -4 9 1 9 9 0 25 17 19 33
-11 8 -16 22 -41 31 -58 9 -16 16 -38 16 -47 0 -9 10 -28 23 -41 12 -13 29
-33 37 -45 8 -12 20 -22 27 -22 20 0 63 -22 63 -33 0 -5 -12 -6 -27 -2 -26 6
-27 5 -11 -11 19 -19 118 -33 118 -16 0 6 -6 13 -12 15 -10 4 -9 8 2 16 13 9
13 11 1 11 -11 0 -12 3 -4 11 8 8 7 18 -3 37 -7 14 -10 29 -6 32 4 3 7 11 8
18 1 6 2 22 3 35 3 21 3 21 11 -3 7 -22 8 -22 10 -5 1 11 2 23 1 28 -2 11 27
9 34 -3 10 -17 35 -11 35 8 0 13 5 10 17 -10 l17 -27 23 32 c13 17 23 25 23
19 0 -8 11 -12 28 -10 21 2 28 -2 30 -19 3 -22 22 -33 22 -13 0 5 7 7 15 4 11
-5 12 -10 4 -26 -8 -15 -7 -24 4 -36 8 -9 17 -25 20 -35 10 -26 31 -16 35 16
4 31 17 36 25 8 3 -12 -6 -31 -24 -50 -31 -34 -47 -39 -55 -16 -7 17 -40 20
-49 5 -6 -9 20 -57 40 -73 6 -5 0 -7 -12 -4 -14 3 -23 0 -23 -6 0 -7 -4 -19
-9 -26 -8 -12 -13 -11 -28 8 -21 26 -103 40 -103 17 0 -6 12 -12 28 -11 20 0
27 -5 28 -20 2 -43 4 -45 37 -40 17 3 26 2 19 -1 -10 -5 -10 -9 -1 -20 6 -8 8
-14 4 -14 -4 0 -2 -7 5 -15 10 -12 10 -18 0 -30 -7 -8 -17 -15 -23 -15 -6 0
-8 3 -4 6 11 12 -36 54 -55 48 -13 -4 -18 0 -18 15 0 12 -4 21 -10 21 -5 0
-10 8 -11 18 0 13 -3 11 -10 -6 -7 -18 -14 -22 -29 -17 -20 6 -28 -9 -10 -20
18 -11 11 -25 -13 -25 -20 0 -22 -5 -24 -57 -1 -32 1 -50 4 -39 3 10 17 29 31
41 35 30 62 15 62 -35 l0 -35 -66 0 c-61 0 -67 2 -75 23 -5 13 -13 20 -19 17
-16 -10 -12 -52 6 -59 21 -8 2 -33 -29 -38 -31 -4 -37 -54 -7 -54 13 0 20 7
20 21 1 19 1 19 11 2 8 -14 14 -16 25 -6 11 9 16 6 24 -17 8 -19 8 -30 1 -32
-5 -2 -7 -10 -4 -18 3 -8 2 -25 -1 -39 -9 -34 -60 -31 -77 5 -7 15 -13 20 -16
13 -8 -23 -23 -13 -23 15 0 18 -5 29 -14 29 -8 0 -12 -6 -9 -13 2 -6 0 -15 -6
-19 -6 -3 -11 -14 -11 -23 0 -15 -32 -52 -44 -52 -3 0 -7 8 -9 18 -3 9 -5 -3
-4 -28 1 -31 -3 -50 -15 -62 -10 -10 -15 -24 -12 -33 4 -10 0 -15 -11 -15 -10
0 -25 -8 -34 -17 -23 -26 -42 -27 -58 -3 -8 11 -20 20 -28 20 -14 0 -65 42
-65 54 0 3 7 6 15 6 8 0 15 5 15 11 0 5 -4 8 -9 4 -14 -8 -23 12 -16 36 6 17
9 19 16 8 10 -16 11 -4 3 29 -8 29 -20 28 -28 -3 -6 -24 -46 -37 -46 -15 0 6
-9 10 -21 10 -29 0 -21 -34 9 -38 28 -4 41 -30 21 -43 -22 -14 -38 -11 -56 11
-10 11 -22 20 -28 20 -13 0 -36 48 -25 52 9 3 13 23 11 51 -2 26 -21 21 -21
-6 0 -13 -6 -24 -14 -24 -8 0 -11 8 -8 19 3 13 -1 18 -17 18 -11 0 -28 12 -38
26 -15 24 -17 25 -24 8 -4 -11 -8 -13 -8 -6 -1 6 -6 12 -12 12 -6 0 -9 -7 -6
-14 4 -10 1 -13 -9 -9 -7 3 -14 9 -14 15 0 5 -12 8 -27 6 -33 -4 -46 -38 -14
-38 11 0 26 -7 35 -15 18 -18 43 -19 49 -2 3 7 6 5 6 -5 1 -10 6 -18 11 -18 6
0 10 -5 10 -11 0 -6 -7 -8 -16 -5 -8 3 -12 2 -9 -4 3 -6 1 -10 -4 -10 -6 0
-11 -7 -11 -16 0 -10 6 -14 14 -11 20 8 28 -4 15 -19 -16 -19 -49 0 -42 25 3
13 -4 23 -26 34 -17 9 -31 12 -31 7 0 -4 7 -11 16 -14 8 -3 12 -11 9 -16 -10
-17 -35 9 -35 36 0 12 -4 26 -10 29 -5 3 -10 15 -10 26 0 12 -5 19 -12 17 -20
-7 -38 18 -38 50 0 28 -3 30 -35 29 -19 -1 -35 -4 -35 -9 0 -14 -29 3 -33 20
-3 12 -5 10 -6 -5 0 -13 -5 -24 -11 -24 -5 -1 -15 -2 -20 -3 -6 0 -15 -7 -19
-15 -5 -7 -20 -14 -35 -13 -14 0 -26 -5 -26 -11 0 -6 -6 -2 -14 8 -8 11 -12
23 -9 28 3 5 -1 22 -7 38 -10 22 -19 29 -34 27 -17 -2 -22 -11 -24 -46 -3 -35
-6 -41 -17 -32 -21 17 -29 -6 -13 -40 16 -37 38 -47 45 -20 7 28 20 25 26 -6
5 -27 0 -30 -45 -38 -25 -4 -28 -1 -28 21 0 21 -2 24 -15 13 -16 -13 -16 -14
-20 43 -2 29 -22 50 -37 40 -5 -2 -6 -13 -3 -24 4 -11 2 -19 -4 -19 -6 0 -11
5 -11 11 0 6 -7 9 -15 5 -10 -4 -15 1 -15 16 l0 21 -23 -21 c-28 -27 -36 -27
-53 -4 -13 16 -13 16 -14 -1 0 -24 19 -42 53 -51 21 -5 27 -4 21 5 -4 7 -3 9
4 5 5 -3 13 -1 15 4 3 6 4 5 3 -2 -2 -12 28 -48 40 -48 4 0 4 8 2 18 -3 10 1
23 8 29 17 16 24 -4 25 -75 1 -51 2 -53 9 -22 7 32 7 30 9 -20 0 -39 -2 -51
-9 -40 -5 8 -10 10 -10 4 0 -6 -7 -11 -15 -11 -8 0 -15 9 -15 19 0 10 -4 18
-10 18 -5 0 -10 -7 -10 -16 0 -10 -6 -14 -15 -10 -9 3 -15 0 -15 -9 0 -8 7
-15 15 -15 8 0 15 -9 15 -20 0 -27 18 -25 23 3 2 12 4 -5 4 -38 0 -33 -2 -50
-4 -37 -2 12 -11 22 -19 22 -7 0 -16 11 -20 24 -3 14 -11 23 -17 20 -8 -3 -12
12 -12 46 0 48 8 64 18 38 3 -7 6 -4 6 8 1 11 -2 23 -5 27 -12 11 -34 -6 -34
-27 -1 -20 -1 -20 -11 -2 -9 14 -8 20 2 26 10 7 10 11 0 24 -8 9 -20 16 -27
16 -8 0 -14 9 -14 19 0 11 -5 21 -12 23 -7 3 -13 21 -15 41 -1 30 2 37 17 37
10 0 20 -5 22 -12 2 -6 9 -8 16 -4 8 5 6 12 -6 26 -20 24 -26 25 -47 4 -15
-15 -17 -15 -36 2 -17 16 -22 16 -30 4 -6 -10 -12 -11 -16 -5 -9 11 -49 35
-59 35 -3 0 -2 -9 1 -20 4 -12 2 -20 -5 -20 -6 0 -8 -4 -5 -10 8 -13 -31 -13
-56 1 -14 7 -30 7 -47 1 -20 -7 -31 -6 -40 4 -9 10 -18 11 -32 4 -26 -14 -60
-13 -60 3 0 8 -4 7 -10 -3 -7 -11 -5 -18 5 -26 8 -6 15 -18 15 -26 0 -14 -4
-14 -34 0 -19 9 -37 23 -39 33 -3 12 -11 16 -25 12 -25 -6 -38 13 -21 33 10
12 8 17 -7 29 -22 17 -54 20 -54 4 0 -5 -4 -7 -10 -4 -5 3 -10 15 -10 26 0 10
-5 18 -12 17 -6 -2 -15 8 -19 22 l-7 25 -2 -25 c-2 -21 -3 -22 -7 -5 -3 11
-13 25 -22 32 -15 11 -15 12 2 18 24 10 21 33 -5 55 -20 16 -21 19 -7 25 10 4
14 14 12 29 -5 22 -2 23 39 19 48 -5 73 12 62 40 -7 20 -39 31 -84 29 -33 -2
-34 -1 -15 14 19 14 19 16 3 25 -10 6 -18 19 -18 29 0 25 20 27 20 3 1 -14 5
-12 21 10 11 15 27 27 35 27 9 0 12 5 8 11 -4 6 -20 8 -40 4 -26 -4 -34 -2
-34 9 0 12 11 13 57 9 51 -6 56 -4 50 11 -4 10 -7 23 -7 29 0 7 -5 4 -11 -5
-12 -22 -74 -26 -66 -5 5 14 -47 40 -57 29 -3 -3 -6 -43 -6 -89 0 -82 0 -83
-25 -83 -14 0 -25 -4 -25 -10 0 -5 -13 -7 -30 -3 -28 5 -44 -11 -19 -19 7 -2
5 -9 -5 -17 -14 -12 -16 -10 -17 10 -1 13 -1 28 0 33 1 5 -3 12 -10 16 -6 4
-8 13 -4 19 5 9 11 9 23 -1 13 -11 15 -10 9 14 -4 15 -3 30 3 33 6 3 7 -1 4
-9 -4 -10 -1 -16 9 -16 9 0 23 -3 32 -6 15 -6 15 -4 4 14 -16 25 -48 35 -66
20 -8 -6 -17 -7 -21 -3 -4 4 -1 10 6 12 21 8 13 23 -14 23 -14 0 -23 4 -19 10
3 6 16 10 28 10 22 0 22 1 -3 20 -22 17 -23 20 -6 20 11 0 28 -8 38 -17 16
-15 21 -15 28 -3 6 9 5 17 -2 21 -7 4 5 14 28 24 31 13 43 14 61 4 18 -10 26
-9 39 2 15 12 16 11 10 -11 -6 -19 -5 -21 3 -10 6 8 11 25 11 38 0 13 4 21 9
17 5 -3 12 -1 16 5 3 5 1 10 -6 10 -7 0 -10 13 -7 35 3 26 1 34 -8 31 -21 -8
-29 35 -9 47 13 7 14 11 5 17 -7 4 2 10 25 14 20 4 40 5 43 2 3 -3 -4 -6 -16
-6 -13 0 -22 -6 -22 -15 0 -18 12 -19 28 -3 7 7 12 8 12 4 0 -5 11 -1 25 8 24
16 25 16 25 -9 0 -27 6 -30 29 -16 8 5 11 16 7 26 -5 13 -2 16 9 11 10 -3 13
-2 10 5 -4 6 2 13 14 16 23 6 25 11 12 31 -7 11 -9 11 -14 -2 -7 -19 -47 -22
-47 -3 1 37 41 51 105 34 l30 -9 -30 24 c-32 25 -94 29 -120 8 -18 -15 -20
-14 -29 23 -4 16 -2 27 4 27 18 0 10 22 -10 27 -22 6 -26 18 -10 28 6 4 5 14
-3 28 -9 14 -13 52 -13 99 1 78 -5 93 -22 61 -6 -9 -16 -14 -25 -10 -13 5 -15
19 -12 83 3 42 6 79 9 81 2 2 -1 21 -6 41 -5 20 -9 47 -9 60 1 15 -4 22 -12
19 -7 -2 -12 -21 -12 -46 0 -26 -6 -45 -15 -51 -10 -7 -11 -10 -2 -10 7 0 12
-15 12 -40 0 -33 -3 -38 -17 -33 -17 6 -16 5 0 -12 14 -13 17 -27 13 -49 -3
-18 -6 -87 -7 -155 0 -68 -4 -134 -9 -147 -5 -13 -6 -26 -1 -28 8 -5 7 -59 -3
-161 -4 -33 -7 -72 -8 -87 -1 -17 -6 -26 -17 -26 -9 0 -31 -3 -48 -7 -22 -5
-33 -4 -33 4 0 6 5 11 10 11 6 0 10 5 10 10 0 6 -6 10 -13 10 -7 0 -22 6 -32
14 -19 14 -19 15 -2 33 9 11 17 32 17 47 0 23 2 25 19 16 33 -17 46 -12 26 10
-10 11 -22 20 -27 20 -13 0 -38 26 -38 39 0 6 -8 11 -17 11 -22 0 -53 29 -47
45 3 8 -13 18 -45 29 -57 18 -75 20 -66 6 3 -5 17 -10 29 -10 13 0 29 -7 36
-15 9 -10 9 -15 1 -15 -6 0 -11 -9 -11 -20 0 -11 -4 -20 -9 -20 -17 0 -23 20
-11 35 6 8 7 16 2 19 -6 3 -13 -1 -16 -10 -4 -12 -16 -15 -40 -12 -24 3 -32 0
-29 -9 3 -7 10 -13 15 -13 7 0 7 -4 0 -13 -9 -11 -8 -60 2 -109 2 -10 -1 -18
-8 -18 -18 0 -66 24 -66 33 0 13 -18 8 -23 -7 -4 -10 -1 -13 9 -9 7 3 14 1 14
-5 0 -5 9 -12 20 -15 13 -3 20 -14 20 -29 0 -19 9 -28 40 -42 27 -12 40 -24
40 -37 0 -10 -2 -19 -4 -19 -2 0 -11 -3 -20 -6 -11 -4 -16 -1 -16 11 0 9 -6
15 -12 13 -21 -7 -15 -28 12 -42 14 -7 24 -19 22 -26 -2 -8 4 -20 14 -27 29
-21 6 -28 -34 -10 -29 14 -33 14 -18 2 11 -8 23 -15 28 -15 4 0 5 -7 1 -16 -4
-11 -13 -14 -31 -9 -20 5 -23 3 -16 -7 6 -7 10 -40 9 -73 l0 -60 -30 2 c-16 0
-24 -1 -17 -4 6 -2 12 -9 12 -15 0 -6 8 -17 18 -24 16 -13 16 -13 -1 -14 -13
0 -16 -6 -11 -24 8 -32 -14 -44 -25 -14 -7 17 -5 26 7 36 15 11 15 14 2 22
-20 13 -37 12 -45 0 -3 -5 -13 -10 -21 -10 -8 0 -14 5 -14 10 0 6 6 10 14 10
8 0 14 11 14 27 0 24 -2 25 -13 10 -13 -18 -31 -24 -20 -7 3 5 1 18 -4 27 -9
16 -10 15 -11 -7 0 -20 -2 -22 -10 -10 -8 13 -10 13 -10 -2 0 -9 6 -19 13 -21
9 -4 8 -8 -3 -17 -12 -9 -12 -13 -2 -17 10 -4 10 -8 2 -19 -13 -14 -4 -38 10
-29 5 3 11 -3 14 -12 3 -10 4 -6 2 10 -2 15 1 30 5 33 5 3 10 -3 10 -13 6 -75
18 -98 21 -37 l1 39 7 -45 c4 -25 8 -37 8 -27 1 10 6 15 12 12 12 -8 -29 -65
-47 -65 -21 0 -15 20 10 30 19 7 19 9 3 9 -10 1 -27 11 -37 23 -25 28 -31 20
-19 -23 8 -28 7 -36 -7 -46 -24 -18 -37 -16 -19 3 23 22 20 27 -11 20 -27 -6
-27 -6 -9 9 11 8 24 15 30 15 6 0 5 5 -2 12 -7 7 -12 25 -12 40 0 15 -4 28
-10 28 -5 0 -10 -9 -10 -19 0 -11 -4 -23 -10 -26 -16 -10 -12 -25 8 -26 12 0
10 -3 -7 -10 -13 -5 -26 -7 -29 -4 -3 3 0 5 8 5 10 0 10 3 -1 16 -10 13 -10
17 0 24 8 4 11 16 6 29 -9 28 3 46 20 31 19 -16 40 -3 25 15 -7 8 -8 19 -4 26
4 7 2 9 -7 5 -8 -3 -22 -9 -31 -12 -12 -4 -18 -17 -18 -38 0 -26 -26 -66 -44
-66 -12 0 2 67 17 78 19 14 23 47 7 57 -6 4 -10 -5 -10 -19 0 -33 -17 -33 -32
-1 -9 20 -19 25 -45 25 -22 0 -32 -4 -28 -11 4 -6 13 -8 20 -5 7 2 21 -2 32
-9 21 -17 16 -18 -59 -15 -51 2 -60 -9 -32 -37 13 -13 17 -14 24 -3 4 7 12 10
17 7 6 -4 24 -2 42 3 29 8 43 -1 21 -15 -5 -3 -10 -15 -10 -26 0 -10 -4 -19
-10 -19 -5 0 -10 9 -10 20 0 11 -4 20 -10 20 -5 0 -10 -8 -10 -18 0 -10 -4
-22 -9 -28 -5 -5 -11 -20 -14 -34 -4 -24 -4 -24 -6 3 -1 24 -5 27 -36 27 -41
0 -47 -17 -7 -23 l27 -4 -32 -8 c-28 -6 -33 -12 -33 -36 0 -19 5 -29 15 -29 8
0 19 -9 24 -19 9 -16 6 -19 -19 -23 l-30 -5 0 61 c-1 48 -3 57 -11 43 -6 -10
-8 -29 -5 -43 4 -14 2 -24 -4 -24 -5 0 -10 24 -10 53 0 36 -3 48 -10 37 -5 -8
-7 -25 -4 -37 3 -12 2 -28 -3 -35 -5 -9 -10 0 -13 27 -5 39 -5 39 -50 40 -37
0 -46 -4 -50 -20 -7 -25 -36 -27 -34 -2 1 9 -2 17 -6 17 -5 0 -12 9 -15 20 -9
28 -25 25 -25 -4 0 -19 -4 -22 -24 -19 -14 3 -27 13 -29 22 -3 9 -6 -15 -7
-54 -2 -38 -5 -59 -7 -45 -3 14 -9 30 -15 37 -6 8 -6 19 1 32 14 25 14 51 1
51 -5 0 -10 -9 -10 -20 0 -25 -20 -27 -21 -2 -1 16 -2 16 -6 0 -5 -21 -19 -23
-26 -5 -3 7 -6 4 -6 -6 -1 -10 -5 -16 -10 -12 -5 3 -17 -5 -25 -17 -16 -22
-16 -22 -30 -3 -13 18 -13 21 2 27 11 5 7 7 -13 5 -28 -2 -30 1 -30 30 0 18
-3 32 -8 30 -4 -1 -17 15 -30 35 -19 31 -24 35 -39 24 -12 -9 -14 -16 -7 -29
8 -13 6 -17 -6 -17 -9 0 -19 9 -22 21 -3 12 -11 18 -19 15 -8 -3 -21 -9 -29
-12 -10 -4 -15 0 -15 11 0 11 -5 15 -15 11 -10 -4 -15 1 -15 16 0 17 2 18 15
8 12 -10 15 -10 15 4 0 9 -7 16 -15 16 -8 0 -15 8 -15 19 0 14 -6 17 -24 14
-23 -5 -31 -31 -12 -45 5 -3 -7 -5 -27 -3 -37 3 -37 3 -37 -36 0 -28 -4 -39
-15 -39 -8 0 -20 -9 -27 -20 -18 -28 -25 -25 -25 10 0 17 3 26 7 20 4 -7 10
-3 13 11 4 13 2 28 -3 33 -7 7 -10 5 -10 -3 0 -10 -9 -11 -34 -7 -22 4 -37 2
-42 -5 -5 -9 -11 -7 -20 6 -13 17 -14 17 -23 -6 -5 -13 -10 -18 -10 -11 -1 6
-5 12 -9 12 -5 0 -8 -29 -8 -65 1 -36 4 -65 8 -65 22 0 38 15 38 36 0 27 15
32 24 8 12 -31 6 -43 -30 -60 -36 -17 -37 -17 -55 4 -9 12 -19 28 -22 35 -4 9
-7 9 -18 0 -10 -10 -9 -16 4 -31 9 -10 17 -23 17 -29 0 -6 7 -16 15 -23 12
-10 13 -16 4 -26 -18 -22 -30 -16 -23 10 4 16 1 25 -10 29 -9 4 -16 16 -16 27
0 11 -7 23 -15 26 -15 6 -21 44 -7 44 4 0 14 15 22 33 7 17 15 34 17 37 1 3
-11 21 -28 40 l-31 35 6 -33 c3 -21 2 -31 -4 -27 -13 8 -13 -1 0 -25 9 -17 7
-17 -25 -7 -41 12 -64 -2 -66 -42 -1 -23 -2 -23 -9 7 -10 43 -17 49 -40 34
-24 -15 -49 -6 -60 22 -7 17 -9 18 -9 4 -1 -10 -5 -18 -10 -18 -5 0 -14 -14
-20 -31 -13 -39 -14 -42 -1 -34 5 3 25 6 44 7 23 1 37 7 39 17 3 11 5 9 6 -6
0 -12 -6 -29 -15 -37 -14 -15 -14 -16 0 -16 11 0 16 -10 16 -32 l1 -33 14 25
c14 24 14 24 15 -24 0 -42 -2 -47 -15 -36 -13 10 -15 9 -15 -12 0 -13 -6 -30
-12 -36 -10 -10 -10 -15 1 -21 17 -11 -2 -23 -23 -15 -20 8 -21 34 -2 34 13 0
30 39 21 49 -3 2 -5 -1 -5 -7 0 -18 -21 -14 -35 5 -11 15 -9 21 18 40 l31 23
-43 0 -44 0 6 -41 c4 -30 1 -42 -9 -46 -20 -8 -28 3 -19 24 5 10 9 32 9 50 1
27 -3 32 -27 37 -15 3 -30 5 -33 3 -9 -3 -26 32 -19 43 3 5 11 7 18 5 7 -3 21
2 32 11 17 13 18 16 5 24 -20 13 -31 12 -27 -1 1 -6 -4 -14 -10 -16 -7 -3 -13
0 -13 5 0 14 22 30 50 34 l25 4 -28 12 c-19 8 -26 16 -20 24 4 7 6 21 5 31 -3
15 1 17 25 11 15 -3 34 -13 40 -22 11 -14 13 -12 13 12 0 25 3 27 28 21 20 -4
33 -1 42 10 17 21 30 19 30 -5 0 -20 -36 -43 -52 -33 -10 5 -10 0 -2 -21 3 -9
10 -16 16 -16 5 0 7 4 4 8 -3 5 6 15 19 22 20 11 27 11 41 -1 16 -13 17 -11
11 23 -4 29 -3 36 9 31 8 -3 14 0 14 6 0 6 -12 13 -27 16 -16 4 -37 8 -47 10
-11 2 -26 -1 -33 -7 -14 -11 -28 -4 -28 14 0 27 -25 16 -34 -14 -7 -25 -9 -28
-10 -10 -1 27 -12 28 -29 2 -19 -31 -31 -24 -30 18 1 61 -8 76 -57 93 -25 9
-45 13 -45 8 0 -5 -16 -9 -36 -9 -34 0 -36 -2 -30 -25 6 -25 -8 -36 -17 -12
-4 9 -8 9 -15 -2 -7 -10 -14 -11 -32 -1 -21 11 -21 12 -4 31 9 10 25 19 36 19
10 0 18 6 18 13 0 9 20 13 76 12 78 -1 88 2 78 29 -5 13 -14 15 -41 10 -28 -5
-35 -4 -31 7 6 19 96 33 126 19 15 -6 22 -16 18 -25 -3 -9 0 -12 10 -8 8 3 13
12 10 20 -3 8 -6 23 -6 34 0 12 -7 19 -19 19 -11 0 -23 9 -26 20 -10 30 70
103 97 89 19 -10 25 -29 8 -29 -5 0 -10 -4 -10 -10 0 -5 7 -10 15 -10 8 0 15
-8 16 -17 0 -14 2 -13 9 5 12 27 30 29 30 2 0 -25 20 -26 27 -1 3 11 14 22 25
24 17 5 18 8 7 20 -8 8 -15 11 -17 6 -5 -13 -38 -11 -50 4 -9 10 -1 16 33 26
24 7 49 10 55 6 6 -4 18 1 25 11 8 11 15 14 15 8 0 -18 49 -23 80 -8 21 11 35
12 55 4 15 -6 31 -8 36 -4 5 3 8 -5 6 -18 -1 -12 3 -23 8 -23 21 -1 31 -15 30
-41 0 -23 -5 -29 -32 -35 -19 -4 -36 -2 -43 5 -8 8 -13 7 -20 -4 -7 -11 -5
-16 8 -19 9 -2 20 -8 24 -15 6 -8 8 -7 8 2 0 7 5 10 10 7 6 -4 24 1 42 9 38
20 42 20 35 2 -4 -10 -1 -13 9 -9 14 5 14 3 3 -15 -7 -12 -10 -25 -6 -29 5 -4
12 -1 17 7 8 13 12 12 25 -5 8 -11 18 -30 21 -42 3 -13 10 -21 14 -18 9 5 7
20 -5 48 -11 25 2 34 27 18 16 -10 30 -10 71 0 38 9 52 9 55 0 6 -19 22 -12
22 9 0 11 8 24 18 27 9 4 22 12 28 17 6 6 21 18 33 26 19 13 19 15 4 32 -15
17 -15 18 0 18 10 0 17 7 17 15 0 9 -6 12 -16 8 -12 -4 -15 0 -12 18 3 27 36
38 49 17 7 -10 9 -10 9 2 0 13 1 13 10 0 5 -8 24 -14 42 -15 25 0 33 -4 32
-17 -2 -22 16 -13 45 23 22 28 22 32 8 46 -22 22 -50 0 -41 -31 4 -12 3 -18
-1 -14 -10 9 -15 137 -5 143 4 2 5 -7 2 -20 -5 -27 15 -34 36 -13 18 18 28 0
13 -24 -12 -19 -11 -20 8 -15 13 3 21 0 21 -8 0 -7 7 -15 15 -19 22 -8 18 -26
-5 -26 -17 0 -19 -4 -14 -27 9 -37 12 -40 20 -17 4 10 13 26 20 34 10 12 10
26 -1 75 -16 68 -11 79 43 90 27 6 32 4 32 -13 0 -23 -19 -33 -49 -25 -25 6
-25 4 -7 -32 8 -14 16 -21 18 -15 5 15 88 26 88 12 0 -6 -9 -14 -20 -17 -12
-4 -20 -15 -20 -30 0 -18 4 -22 21 -18 11 3 28 17 36 30 14 21 14 26 2 34 -10
6 -3 9 24 9 33 0 37 3 37 25 0 14 7 28 15 32 22 8 30 -4 15 -22 -9 -11 -9 -19
-2 -28 8 -9 7 -20 -2 -39 -13 -24 -12 -28 8 -47 23 -21 52 -29 41 -11 -3 5 0
7 9 4 8 -3 17 -12 20 -20 3 -8 10 -14 16 -14 8 0 8 6 0 20 -8 16 -8 20 4 20
31 0 43 -11 38 -36 -2 -13 0 -24 7 -24 5 0 8 -7 5 -15 -7 -18 12 -20 22 -3 4
7 9 25 11 40 2 20 -2 28 -13 28 -9 0 -14 6 -11 13 2 8 30 12 90 11 66 0 87 3
87 13 0 8 -6 15 -12 17 -53 16 -54 18 -10 34 23 9 42 22 42 28 0 22 19 25 38
6 10 -10 27 -22 38 -26 19 -8 19 -8 -1 -16 -19 -8 -19 -8 -1 -16 18 -7 18 -8
1 -20 -25 -18 -6 -40 43 -49 20 -4 40 -12 44 -18 4 -6 10 -8 14 -4 4 4 0 13
-8 20 -9 6 -18 21 -20 32 -2 12 -12 21 -26 23 -22 3 -26 11 -23 45 1 9 -4 17
-12 17 -29 0 -44 40 -34 87 14 59 37 57 37 -3 0 -38 3 -45 18 -42 11 2 18 14
20 33 2 17 8 35 14 40 8 7 9 4 4 -9 -7 -21 11 -49 27 -39 6 3 7 1 3 -5 -4 -7
-2 -12 5 -12 8 0 6 -6 -4 -18 -19 -21 -22 -42 -7 -42 17 0 25 5 22 12 -1 5 6
16 15 26 17 17 21 17 91 -7 50 -17 71 -28 68 -38 -3 -7 7 -19 24 -28 36 -19
38 -19 36 1 -2 25 24 29 31 5 7 -26 19 -27 26 -2 3 13 -3 22 -20 30 -13 6 -28
9 -33 6 -4 -3 -18 4 -31 14 -20 16 -21 21 -10 35 11 14 11 16 -3 16 -10 0 -14
4 -11 10 7 11 27 9 68 -8 44 -18 52 -14 21 10 -16 13 -30 26 -32 30 -4 9 -53
0 -69 -13 -8 -7 -18 -7 -30 0 -17 10 -17 10 0 11 9 0 17 5 17 10 0 15 -21 12
-41 -6 -22 -20 -46 -9 -28 12 9 11 8 14 -7 15 -11 0 -14 3 -6 6 6 2 12 13 12
24 0 10 5 19 10 19 6 0 10 -7 10 -15 0 -20 6 -19 31 6 11 11 18 27 15 35 -4
12 -2 12 14 4 21 -11 27 -30 10 -30 -5 0 -10 -4 -10 -10 0 -18 39 -11 52 9 9
15 15 17 29 8 10 -6 21 -8 25 -4 10 10 3 15 -26 20 -14 2 -38 9 -53 15 -16 7
-46 15 -68 18 -40 7 -54 24 -19 24 10 0 23 7 28 16 8 14 15 15 48 6 35 -9 37
-11 17 -17 -33 -10 -28 -25 7 -25 17 0 30 5 30 10 0 6 14 10 31 10 19 0 28 4
23 11 -3 6 -19 9 -35 7 -20 -3 -29 0 -29 9 0 8 -12 13 -29 13 -34 0 -48 15
-32 34 8 10 7 17 -4 26 -17 14 -26 0 -22 -34 1 -10 -4 -21 -12 -24 -11 -3 -12
2 -7 22 5 22 3 26 -10 24 -9 -2 -19 3 -21 10 -3 7 3 12 14 12 10 0 35 11 55
25 20 14 39 25 42 25 14 0 46 42 46 60 0 23 15 27 24 5 3 -8 10 -15 16 -15 6
0 5 8 -2 20 -11 17 -10 22 2 30 12 8 10 10 -10 10 l-25 1 25 11 c14 6 29 10
33 9 5 -1 7 16 6 38 -2 28 2 46 15 60 17 19 17 21 3 21 -20 0 -22 21 -5 38 9
9 8 12 -4 12 -11 0 -15 6 -11 20 3 12 0 20 -7 20 -7 0 -10 7 -7 15 4 8 -7 27
-24 45 -17 16 -25 30 -18 30 7 0 -1 15 -19 33 -18 18 -32 38 -32 45 0 7 -5 12
-11 12 -5 0 -7 -4 -4 -10 3 -5 2 -10 -3 -10 -11 0 -22 34 -22 68 0 12 -4 22
-10 22 -5 0 -10 -5 -10 -12 0 -20 -13 0 -15 24 -1 13 -3 27 -4 32 0 5 -8 3
-17 -5 -13 -11 -14 -9 -8 16 5 22 4 26 -6 20 -9 -5 -11 -4 -6 3 4 7 -5 28 -20
48 -21 26 -29 51 -33 97 -5 46 -10 62 -21 62 -19 0 -15 63 6 115 12 27 17 31
24 20 6 -10 4 -23 -6 -38 -16 -24 -10 -72 7 -55 11 11 59 194 63 238 1 17 4
73 5 125 2 62 6 85 10 65 l7 -30 7 28 c4 16 12 25 18 21 6 -3 24 6 40 22 16
15 29 22 29 16 0 -7 5 -12 10 -12 6 0 10 6 10 14 0 26 31 87 40 81 6 -4 8 -10
5 -15z m-61 -1072 c-4 -7 -14 -21 -22 -30 -13 -16 -13 -20 1 -36 24 -26 21
-81 -4 -108 -12 -12 -26 -21 -33 -18 -6 2 -16 -7 -23 -22 -10 -23 -9 -26 14
-37 22 -10 28 -7 63 29 21 22 40 49 44 60 3 10 3 -2 1 -29 -5 -51 -21 -83 -69
-135 -43 -48 -66 -54 -144 -41 -37 6 -81 13 -99 15 -17 3 -33 11 -36 18 -7 18
13 177 25 199 5 10 16 16 23 13 10 -3 12 0 8 11 -4 11 -2 14 5 9 7 -4 12 -1
12 9 0 22 22 43 39 37 8 -3 11 0 7 6 -8 13 3 20 46 33 l32 9 -39 -39 c-22 -21
-45 -36 -52 -34 -17 7 -16 -12 1 -26 10 -8 16 -9 21 -2 4 7 17 3 35 -11 l30
-21 25 28 26 28 -25 -7 c-13 -3 -27 -2 -30 3 -8 13 51 61 75 61 12 0 19 7 19
20 0 11 7 20 16 20 9 0 12 -5 8 -12z m-96 -1755 c46 -34 71 -62 93 -105 25
-49 24 -73 -3 -100 -13 -13 -31 -40 -40 -60 -10 -23 -28 -42 -43 -48 -38 -14
-42 -13 -49 15 -7 28 -40 49 -62 41 -9 -4 -13 -13 -10 -23 3 -10 -1 -40 -9
-67 -8 -27 -15 -68 -15 -90 0 -67 -9 -73 -73 -42 -54 25 -97 69 -97 99 0 11 6
13 23 9 36 -11 90 -60 83 -77 -8 -23 10 -18 26 8 9 12 17 58 21 105 l5 84 -24
-6 c-17 -5 -26 -2 -30 9 -4 10 -14 13 -29 9 -34 -8 -56 39 -56 120 -1 75 10
95 65 124 51 27 58 27 54 0 -2 -17 4 -24 29 -31 41 -12 63 -3 63 26 0 43 19
43 78 0z m-419 -225 c0 -50 5 -94 10 -98 15 -9 26 -150 12 -150 -6 0 -11 -5
-11 -11 0 -5 4 -8 9 -4 11 6 25 -53 19 -80 -5 -26 -23 -22 -26 7 -2 14 -14 38
-28 53 -13 14 -24 34 -23 43 0 10 3 12 6 5 8 -20 23 -15 23 7 0 13 -7 20 -20
20 -21 0 -28 26 -9 32 14 5 -9 100 -28 111 -18 11 -17 27 2 27 9 0 15 9 15 25
0 14 5 24 12 23 6 -2 12 6 13 17 2 22 15 65 20 65 2 0 4 -41 4 -92z m1523
-513 c8 3 21 -1 28 -10 7 -8 22 -15 35 -15 25 0 37 -9 29 -22 -3 -5 -12 -4
-21 3 -12 10 -16 10 -24 -2 -13 -21 -5 -34 25 -37 19 -2 26 -8 22 -18 -3 -8
-1 -14 4 -14 6 0 10 -4 10 -10 0 -5 -9 -10 -20 -10 -11 0 -20 7 -20 15 0 8 -4
15 -10 15 -5 0 -10 -7 -10 -15 0 -8 5 -15 10 -15 6 0 10 -10 10 -23 0 -13 6
-29 12 -35 7 -7 13 -32 14 -55 3 -54 14 -100 27 -109 8 -4 7 -15 -1 -33 -14
-30 -16 -72 -4 -79 5 -3 8 -29 8 -58 -2 -55 -7 -60 -48 -43 -14 5 -18 2 -18
-13 0 -15 5 -18 25 -14 21 4 25 1 25 -21 0 -14 5 -38 11 -54 8 -21 12 -24 19
-13 5 9 8 -5 6 -39 -2 -37 -8 -56 -19 -63 -13 -7 -15 -13 -7 -29 8 -14 7 -19
-2 -19 -7 0 -6 -5 4 -12 17 -14 30 -78 16 -78 -5 0 -6 -4 -3 -10 4 -6 -15 -10
-49 -10 -30 0 -58 4 -61 10 -3 6 1 7 9 4 10 -4 16 -1 16 10 0 10 -6 13 -15 10
-8 -4 -15 -1 -15 4 0 6 -9 14 -20 17 -28 9 -25 25 4 25 23 0 23 1 14 51 -5 29
-6 55 -1 58 4 3 8 22 8 41 0 27 4 35 18 34 9 -1 17 4 17 12 0 9 -9 13 -25 12
-17 -2 -25 -8 -25 -20 0 -10 -4 -18 -9 -18 -5 0 -9 10 -8 23 0 12 -1 27 -2 32
-2 6 -3 36 -2 67 1 45 6 62 23 78 25 23 16 40 -11 23 -11 -7 -21 -10 -24 -7
-10 10 6 44 21 44 13 0 12 3 -3 20 -14 15 -21 17 -32 9 -10 -9 -13 -8 -13 5 0
9 5 16 10 16 6 0 10 7 10 15 0 8 -4 15 -10 15 -21 0 -9 18 20 30 33 14 32 12
24 34 -4 10 -18 16 -35 16 -21 0 -29 5 -29 18 0 15 6 17 36 14 l36 -4 -22 30
c-21 29 -22 71 -1 57 5 -3 12 -1 15 4 8 13 -4 42 -15 35 -5 -3 -10 3 -11 13 0
10 -2 23 -2 30 -1 7 -7 18 -14 25 -6 6 -12 28 -12 47 0 33 1 33 19 17 10 -9
25 -14 33 -11z m-4245 -863 c67 -37 92 -158 45 -221 -26 -35 -27 -47 -7 -54
21 -8 55 -81 55 -117 0 -61 -50 -130 -119 -164 -50 -24 -185 -22 -245 4 -39
16 -46 24 -46 47 0 72 17 85 70 58 48 -25 141 -30 178 -11 29 15 32 21 32 60
0 59 -15 69 -116 74 -93 5 -107 13 -102 64 l3 33 76 5 c99 7 131 26 127 78 -3
32 -9 40 -41 55 -30 15 -43 17 -69 8 -17 -6 -52 -11 -78 -11 -40 0 -48 3 -58
25 -16 34 -15 60 1 73 28 23 249 18 294 -6z m452 -156 c56 -29 65 -58 71 -211
3 -77 9 -147 13 -155 11 -24 -6 -40 -47 -43 -36 -2 -46 5 -62 41 -1 2 -19 -8
-39 -23 -70 -47 -188 -27 -226 40 -33 56 -16 139 36 177 40 30 108 43 165 32
48 -10 50 -10 50 12 0 39 -22 46 -127 42 -96 -3 -97 -3 -106 22 -5 15 -5 35 2
53 l11 27 115 0 c82 0 124 -4 144 -14z m256 -6 l18 -20 34 20 c66 39 177 16
217 -45 32 -49 47 -129 35 -188 -14 -63 -23 -83 -58 -120 -40 -43 -82 -60
-143 -55 -29 2 -61 8 -72 13 -17 7 -18 3 -15 -83 l4 -92 -40 -8 c-77 -17 -75
-24 -75 269 0 166 -4 268 -11 280 -15 29 5 49 51 49 24 0 43 -7 55 -20z m483
8 c8 -8 12 -47 12 -112 l0 -99 73 109 c77 114 92 125 153 110 l24 -6 0 -204 0
-204 -23 -6 c-13 -3 -36 -2 -52 3 l-30 8 -1 106 c-1 59 -3 110 -6 113 -3 3
-41 -49 -83 -116 l-78 -121 -41 3 -41 3 -5 185 c-3 102 -9 191 -13 198 -15 22
13 42 57 42 23 0 47 -5 54 -12z m455 0 c12 -10 17 -32 19 -83 l3 -70 59 -3
c40 -2 62 1 68 10 5 7 6 40 3 74 -7 72 4 87 62 82 55 -4 65 -30 53 -144 -5
-49 -10 -130 -10 -181 0 -100 -4 -106 -64 -99 -39 5 -46 20 -46 99 l0 67 -71
0 -72 0 5 -75 c4 -66 3 -77 -13 -85 -31 -17 -77 -12 -89 10 -10 18 -13 386 -3
403 7 12 78 8 96 -5z m635 -2 c61 -32 66 -46 73 -205 4 -80 10 -156 14 -168 6
-18 2 -25 -18 -34 -33 -15 -78 -4 -84 21 -5 19 -23 28 -23 12 0 -18 -73 -42
-123 -41 -70 1 -107 24 -131 83 -18 41 -18 51 -7 84 19 53 47 79 103 98 36 12
65 14 108 9 64 -7 69 -3 44 34 -16 23 -20 23 -111 17 -85 -7 -96 -5 -109 11
-18 24 -17 44 2 71 14 20 23 22 125 22 75 0 119 -4 137 -14z m497 -47 c25 -34
48 -72 51 -85 4 -15 14 -24 25 -24 16 0 19 10 21 83 l3 82 50 0 50 0 5 -80 c4
-70 7 -80 24 -80 12 0 28 17 45 48 41 74 79 117 105 117 25 0 76 -35 76 -52 0
-5 -25 -37 -55 -71 -30 -33 -55 -64 -55 -69 0 -20 55 -104 83 -129 26 -23 29
-30 23 -62 -5 -29 -12 -37 -37 -42 -42 -9 -73 14 -109 83 -40 78 -41 79 -74
88 l-29 7 6 -86 c6 -86 6 -87 -18 -93 -66 -16 -95 22 -95 122 0 30 -3 54 -8
54 -21 0 -53 -36 -77 -85 -14 -30 -35 -64 -47 -75 -41 -38 -97 -18 -104 38 -3
26 1 35 20 43 13 6 37 38 56 75 l33 65 -32 37 c-17 20 -43 52 -58 71 l-27 33
29 24 c48 38 69 32 120 -37z m619 45 c3 -9 6 -61 6 -117 l0 -102 40 63 c22 35
58 88 81 118 39 53 42 55 82 52 60 -4 63 -19 57 -233 l-5 -180 -26 -9 c-14 -5
-38 -6 -53 -2 l-26 6 0 122 0 121 -29 -40 c-15 -21 -48 -72 -72 -112 -24 -40
-52 -79 -63 -87 -25 -17 -70 -18 -84 -1 -14 16 -20 406 -7 411 6 3 29 5 51 5
30 1 44 -4 48 -15z m633 4 c54 -23 63 -37 63 -98 0 -31 -5 -61 -11 -67 -9 -9
-6 -19 10 -41 31 -44 29 -120 -3 -155 -42 -45 -90 -59 -191 -54 -49 2 -102 9
-117 15 l-28 12 0 122 c0 68 -3 152 -6 188 l-6 66 43 10 c62 15 212 16 246 2z
m261 0 c8 -8 12 -48 12 -112 0 -115 -5 -117 86 24 30 46 60 88 67 92 19 12 82
9 95 -4 8 -8 12 -67 12 -199 0 -222 -5 -235 -87 -213 -22 6 -23 10 -23 126 0
65 -4 117 -8 114 -4 -2 -41 -57 -81 -120 -75 -118 -91 -132 -142 -124 l-24 3
-6 205 c-3 113 -4 208 -2 213 7 12 88 8 101 -5z m161 -494 c2 -2 -2 -10 -9
-19 -10 -12 -8 -18 11 -36 l24 -20 -28 4 c-18 3 -26 0 -24 -7 2 -6 16 -12 30
-14 24 -3 27 -7 27 -43 0 -34 -3 -39 -24 -39 -27 0 -41 -32 -25 -62 11 -21 35
-24 42 -5 2 6 8 8 13 4 4 -4 3 -21 -3 -38 -13 -32 -2 -79 17 -79 5 0 10 -7 10
-15 0 -8 5 -15 11 -15 7 0 9 -11 5 -31 -5 -28 -4 -30 17 -25 12 3 16 3 10 0
-15 -7 -17 -50 -3 -59 6 -3 10 -15 10 -25 0 -11 9 -24 20 -30 11 -6 20 -16 20
-23 0 -22 95 -197 108 -197 6 0 12 -7 12 -16 0 -11 6 -15 19 -11 16 4 22 -4
32 -39 9 -30 19 -44 31 -44 9 0 22 -9 28 -20 9 -16 8 -18 -5 -14 -10 4 -15 0
-15 -10 0 -9 4 -16 9 -16 5 0 18 -17 28 -37 10 -20 25 -40 33 -43 8 -4 25 -12
37 -18 12 -7 29 -9 38 -6 20 8 19 -6 -2 -21 -12 -9 -24 -10 -35 -4 -10 6 -19
5 -23 -1 -3 -5 -1 -10 4 -10 6 0 11 -5 11 -10 0 -6 9 -21 20 -32 22 -24 22
-41 -2 -46 -23 -5 -48 26 -48 59 0 24 -4 29 -25 29 -18 0 -26 7 -31 25 -6 25
-59 59 -75 49 -15 -9 -10 18 7 37 15 17 14 19 -19 33 -37 15 -52 43 -42 77 9
28 -22 51 -49 37 -17 -9 -18 -7 -13 15 5 17 1 29 -13 42 -11 10 -21 28 -21 39
-1 17 -2 18 -6 3 -6 -25 -23 -11 -23 20 0 18 4 24 15 19 26 -10 16 1 -20 23
-21 12 -35 28 -35 40 0 10 -6 21 -14 24 -8 3 -16 18 -18 33 -2 15 -12 32 -23
38 -11 6 -22 12 -25 14 -2 1 -3 18 -2 36 2 21 -4 41 -14 50 -10 11 -15 27 -12
47 3 17 -1 34 -9 40 -7 6 -13 22 -13 35 0 14 -6 24 -14 24 -15 0 -26 21 -26
49 0 9 -15 39 -33 67 -28 43 -32 54 -25 83 6 21 5 37 -2 46 -13 16 -3 43 18
48 17 5 124 -3 131 -9z m-1359 -145 c0 -9 -9 -19 -20 -22 -26 -7 -26 -37 0
-37 13 0 24 10 30 25 5 14 15 25 22 25 16 0 38 -46 38 -77 0 -16 8 -27 25 -33
28 -11 31 -26 12 -63 -30 -58 -118 -103 -133 -68 -4 9 -6 21 -5 27 2 17 -27
37 -44 31 -8 -4 -26 0 -40 7 -32 17 -70 56 -54 56 7 0 9 9 5 25 -4 14 -2 25 3
25 5 0 11 15 13 32 3 34 22 45 47 29 12 -8 12 -13 -3 -36 -12 -19 -15 -30 -8
-37 14 -14 45 -1 39 16 -3 8 0 22 8 32 11 16 10 20 -3 30 -14 10 -12 15 12 39
26 26 28 26 41 9 8 -11 15 -26 15 -35z"/>
<path d="M5460 4522 c0 -4 5 -13 11 -19 8 -8 6 -18 -7 -38 -12 -18 -19 -22
-24 -14 -6 8 -11 5 -19 -10 -10 -17 -9 -21 4 -21 8 0 15 -9 15 -20 0 -11 5
-20 12 -20 6 0 19 -6 27 -14 9 -7 31 -18 49 -24 27 -9 34 -9 39 3 3 8 13 15
23 15 19 0 36 17 27 27 -3 3 -12 1 -19 -3 -7 -5 -27 -14 -44 -20 -27 -9 -33
-8 -44 10 -9 14 -10 21 -1 24 14 5 15 32 1 32 -6 0 -5 6 2 14 9 10 17 11 26 4
14 -12 46 8 36 23 -3 5 1 9 8 9 8 0 6 5 -4 11 -10 5 -18 17 -18 24 0 8 -4 15
-10 15 -5 0 -10 -6 -10 -14 0 -13 -20 -26 -41 -26 -5 0 -9 9 -9 20 0 11 -7 20
-15 20 -8 0 -15 -4 -15 -8z"/>
<path d="M2734 2272 c-34 -27 -44 -56 -44 -127 0 -64 1 -66 33 -81 27 -13 41
-14 75 -5 52 14 64 37 65 118 1 53 -3 67 -23 88 -28 30 -75 33 -106 7z"/>
</g>
</svg>
