<?xml version="1.0" standalone="no"?>
<!DOCTYPE svg PUBLIC "-//W3C//DTD SVG 20010904//EN"
 "http://www.w3.org/TR/2001/REC-SVG-20010904/DTD/svg10.dtd">
<svg version="1.0" xmlns="http://www.w3.org/2000/svg"
 width="1024.000000pt" height="760.000000pt" viewBox="0 0 1024.000000 760.000000"
 preserveAspectRatio="xMidYMid meet">
<metadata>
Created by potrace 1.16, written by Peter Selinger 2001-2019
</metadata>
<g transform="translate(0.000000,760.000000) scale(0.100000,-0.100000)"
fill="#000000" stroke="none">
<path d="M5115 7008 c-33 -4 -65 -10 -71 -12 -6 -3 -17 1 -23 7 -8 8 -11 8
-11 -1 0 -7 -16 -12 -42 -12 -33 0 -40 -3 -28 -11 12 -9 11 -10 -7 -6 -13 3
-23 1 -23 -5 0 -6 -7 -7 -16 -4 -8 3 -12 2 -9 -4 3 -6 -1 -10 -9 -10 -9 0 -16
-4 -16 -10 0 -5 -7 -7 -15 -4 -8 4 -15 1 -15 -5 0 -6 -5 -11 -11 -11 -6 0 -25
-11 -43 -25 -18 -14 -41 -25 -52 -26 -10 0 -14 -3 -7 -5 9 -4 9 -11 1 -29 -13
-28 -40 -43 -31 -17 3 9 -4 4 -16 -13 -11 -16 -21 -45 -21 -62 0 -23 -5 -33
-15 -33 -8 0 -15 -5 -15 -11 0 -6 -6 -9 -14 -6 -7 3 -25 -6 -39 -19 -14 -13
-31 -24 -37 -24 -5 0 -10 -4 -10 -10 0 -17 -51 -60 -71 -60 -11 0 -38 -9 -60
-20 -22 -12 -44 -18 -50 -14 -6 3 -17 -3 -25 -15 -8 -12 -21 -21 -28 -21 -7 0
-23 -11 -36 -25 -12 -13 -27 -22 -31 -19 -5 3 -6 -2 -3 -10 4 -10 1 -16 -10
-16 -19 0 -81 -61 -81 -80 0 -8 -5 -14 -12 -13 -12 3 -62 -75 -68 -105 -5 -30
-69 -145 -73 -133 -8 25 -21 8 -32 -44 -6 -30 -16 -55 -21 -55 -15 0 -40 -67
-45 -119 -3 -25 -9 -50 -14 -55 -6 -6 -10 -20 -10 -31 0 -12 -3 -25 -7 -29 -4
-3 -8 -13 -9 -20 -5 -34 -16 -56 -26 -50 -6 4 -8 2 -4 -4 3 -6 -6 -37 -21 -69
-14 -32 -26 -66 -25 -75 0 -12 -4 -15 -16 -11 -15 6 -15 4 -4 -9 11 -14 10
-23 -6 -57 -13 -25 -16 -43 -10 -49 6 -6 6 -17 -2 -31 -6 -12 -8 -27 -4 -33 4
-7 3 -8 -4 -4 -7 4 -12 2 -12 -4 0 -6 -7 -27 -16 -48 -9 -20 -16 -53 -16 -72
0 -90 3 -121 11 -116 4 3 6 -7 3 -22 -5 -24 -6 -25 -14 -7 -5 12 -6 -16 -4
-70 5 -111 -1 -148 -22 -140 -12 5 -13 3 -2 -10 12 -15 15 -14 26 7 10 17 13
19 14 6 0 -9 -7 -23 -15 -32 -10 -9 -15 -35 -16 -73 l-1 -58 -13 40 -14 40 4
-58 c3 -37 0 -55 -6 -51 -6 3 -8 12 -5 19 2 7 1 26 -4 42 -7 21 -8 15 -5 -27
2 -30 0 -62 -5 -70 -8 -12 -10 -11 -8 5 0 11 0 28 0 39 -2 16 -5 15 -23 -8
-11 -14 -24 -24 -29 -21 -5 3 -10 -12 -12 -32 -3 -36 -5 -38 -35 -37 -18 1
-33 -2 -33 -7 0 -5 13 -9 29 -9 41 0 47 -15 17 -45 -28 -28 -32 -26 -15 7 9
16 8 19 -3 14 -7 -3 -21 -9 -30 -12 -9 -3 -22 -19 -29 -35 -10 -26 -9 -32 6
-43 10 -7 15 -19 12 -27 -4 -10 -6 -8 -6 5 -1 17 -3 16 -26 -6 -22 -22 -24
-32 -20 -73 4 -43 -5 -58 -11 -18 -6 42 -15 63 -24 58 -7 -4 -6 -14 1 -26 6
-12 8 -23 5 -27 -3 -3 -6 -2 -6 1 0 4 -9 -2 -20 -13 -11 -11 -17 -26 -14 -33
3 -8 -2 -19 -10 -26 -8 -7 -12 -19 -10 -26 3 -8 1 -22 -5 -32 -9 -16 -10 -15
-11 10 0 15 -4 27 -10 27 -5 0 -10 -7 -10 -15 0 -8 -5 -15 -11 -15 -8 0 -8 -4
0 -14 8 -10 8 -20 -4 -42 -8 -16 -15 -38 -15 -48 0 -19 -1 -18 -21 3 -12 12
-24 20 -27 16 -3 -3 0 -11 6 -17 7 -7 12 -23 12 -37 0 -21 2 -23 13 -10 6 8
20 21 30 28 15 12 17 11 17 -8 0 -14 -6 -21 -20 -21 -11 0 -20 -4 -20 -10 0
-5 -9 -10 -20 -10 -16 0 -20 -7 -20 -35 0 -19 -4 -35 -9 -35 -5 0 -6 19 -4 43
3 23 0 58 -6 77 -9 30 -10 21 -8 -56 2 -70 -1 -88 -9 -75 -7 9 -14 25 -17 36
-4 18 -5 18 -6 -2 -1 -15 -7 -23 -18 -23 -15 0 -16 -2 -3 -10 9 -6 17 -5 22 3
4 7 8 -8 9 -33 0 -31 3 -39 8 -26 7 18 8 18 14 3 4 -10 1 -18 -6 -19 -7 0 -16
-2 -22 -3 -5 -2 -18 -3 -28 -4 -11 -1 -15 -6 -11 -12 3 -6 0 -15 -7 -20 -11
-6 -10 -9 4 -15 17 -6 17 -7 0 -20 -17 -13 -17 -14 0 -8 13 5 17 1 17 -15 0
-12 -6 -21 -15 -21 -8 0 -15 5 -15 11 0 5 -5 7 -11 3 -6 -3 -7 -9 -3 -13 5 -3
15 -14 23 -24 13 -17 12 -18 -12 -12 -22 6 -28 3 -38 -19 -9 -20 -9 -32 -1
-51 7 -14 8 -25 2 -25 -5 0 -7 -7 -4 -15 4 -8 1 -15 -6 -15 -10 0 -10 -3 0
-15 10 -12 10 -15 -1 -15 -10 -1 -8 -4 4 -11 9 -5 17 -14 17 -20 0 -5 -11 -2
-25 7 -25 16 -25 16 -36 -15 -10 -30 -29 -43 -29 -20 0 5 -5 7 -11 3 -8 -4 -7
-9 2 -15 12 -8 11 -11 -1 -20 -13 -9 -12 -10 2 -5 14 4 17 -1 16 -28 -1 -18 2
-38 6 -44 4 -7 2 -12 -3 -12 -6 0 -11 7 -11 15 0 10 -9 15 -27 14 -17 -1 -21
-3 -10 -6 24 -6 21 -21 -5 -26 l-23 -4 23 -2 c12 0 22 -6 22 -12 0 -6 -8 -8
-19 -4 -11 3 -22 1 -26 -5 -4 -6 6 -10 24 -10 17 0 31 -4 31 -10 0 -5 -11 -10
-23 -10 -30 0 -40 -10 -26 -26 17 -21 2 -62 -24 -67 -19 -4 -19 -4 5 -6 15 0
30 -6 34 -12 5 -8 -1 -10 -19 -7 -14 3 -32 1 -39 -3 -10 -7 -9 -9 5 -9 9 0 17
-4 17 -10 0 -5 -6 -7 -14 -4 -17 7 -28 -30 -12 -46 8 -8 7 -13 -4 -20 -13 -8
-12 -11 5 -24 11 -9 14 -16 8 -16 -9 0 -13 -18 -13 -57 0 -42 -3 -54 -10 -43
-5 8 -9 29 -8 45 1 17 -2 36 -6 43 -4 7 -2 12 5 12 7 0 10 3 6 6 -3 3 -12 2
-19 -2 -13 -9 -17 -9 -53 -13 -19 -2 -19 -2 -2 -15 17 -13 17 -15 2 -23 -15
-9 -15 -11 -1 -23 15 -11 15 -14 -1 -26 -12 -9 -14 -13 -5 -14 17 0 43 26 34
34 -9 10 -11 66 -2 66 12 0 23 -41 21 -77 -1 -17 2 -41 8 -52 8 -14 8 -21 -2
-24 -9 -4 -9 -7 1 -18 14 -15 16 -29 3 -29 -5 0 -11 9 -14 20 -5 20 -37 29
-37 10 0 -5 7 -10 15 -10 8 0 15 -4 15 -10 0 -5 -7 -10 -16 -10 -9 0 -14 -6
-11 -12 2 -7 10 -12 16 -11 6 2 11 -2 11 -7 0 -6 -13 -10 -28 -10 -26 0 -28 2
-24 36 3 27 1 35 -8 29 -6 -4 -10 -16 -7 -26 3 -10 1 -22 -4 -25 -17 -10 -9
-22 22 -28 17 -3 28 -10 25 -15 -3 -4 -18 -6 -33 -3 -24 4 -26 3 -16 -10 7 -8
10 -18 6 -21 -3 -4 1 -7 11 -7 10 0 14 5 10 11 -4 7 1 10 12 7 11 -2 18 -7 17
-11 -2 -4 -3 -19 -3 -34 0 -25 -1 -26 -14 -8 -12 17 -14 15 -20 -19 -4 -20 -4
-46 -1 -56 9 -28 -14 -25 -25 3 -8 20 -9 21 -10 2 -1 -11 -2 -32 -2 -47 -1
-23 -5 -27 -39 -30 -32 -3 -39 0 -42 17 -2 11 -5 4 -6 -15 -1 -26 2 -31 11
-22 14 14 58 16 58 3 0 -5 -10 -12 -22 -14 -16 -3 -13 -5 10 -6 19 0 31 -5 27
-11 -3 -5 -1 -10 5 -10 8 0 10 9 6 25 -5 19 -3 23 9 19 18 -7 18 -9 5 -35 -6
-10 -19 -19 -30 -19 -14 0 -20 -8 -22 -32 -2 -18 1 -41 7 -50 6 -12 6 -21 -3
-30 -9 -9 -12 -6 -12 17 0 27 -1 28 -17 13 -13 -14 -14 -20 -4 -32 10 -11 7
-16 -16 -24 -15 -6 -23 -11 -17 -11 6 -1 9 -14 6 -31 -4 -29 11 -42 21 -17 3
6 6 -1 6 -16 1 -16 -3 -26 -9 -22 -6 4 -10 -8 -10 -29 0 -20 -4 -36 -9 -36 -4
0 -7 14 -5 30 2 17 -1 30 -6 30 -6 0 -10 -7 -10 -15 0 -8 -7 -15 -15 -15 -8 0
-15 -6 -15 -14 0 -8 -3 -22 -7 -32 -4 -12 -3 -15 5 -10 16 10 15 -2 -2 -19 -7
-8 -31 -16 -52 -18 -26 -3 -20 -4 16 -3 43 1 55 -2 55 -14 0 -11 -9 -14 -36
-12 -39 3 -71 -20 -48 -34 7 -4 15 -2 17 4 2 7 8 12 13 12 5 0 4 -9 -3 -20
-15 -24 -34 -26 -42 -5 -3 8 -11 15 -18 14 -10 0 -10 -2 0 -6 24 -9 12 -22
-26 -26 l-37 -4 41 -1 c38 -2 41 -4 41 -31 0 -17 -5 -29 -11 -28 -17 3 -18
-30 0 -47 24 -24 12 -30 -14 -6 -22 21 -52 27 -52 10 0 -5 -7 -7 -15 -4 -8 4
-15 1 -15 -4 0 -6 9 -14 20 -17 11 -3 20 -13 20 -21 0 -14 -10 -18 -43 -15
-12 2 -17 -5 -17 -23 0 -14 4 -26 9 -26 5 0 8 6 7 13 0 6 4 13 9 14 10 3 12
-2 14 -47 1 -19 3 -22 10 -11 8 12 12 12 25 2 19 -16 11 -34 -12 -26 -19 5
-48 -46 -37 -65 10 -16 -5 -50 -21 -50 -18 0 -59 -37 -59 -53 0 -6 -11 -14
-25 -17 -14 -3 -20 -9 -14 -12 17 -11 54 3 54 21 0 9 14 25 30 35 17 9 39 27
50 38 11 12 25 18 34 15 22 -9 20 -24 -3 -30 -11 -3 -22 -17 -26 -36 -6 -26
-11 -31 -36 -31 -19 0 -29 -5 -29 -15 0 -20 27 -19 47 0 8 9 18 13 22 10 3 -4
-5 -14 -17 -24 -19 -14 -22 -23 -16 -47 5 -24 4 -27 -7 -17 -19 19 -29 16 -29
-8 0 -16 4 -19 23 -14 l22 7 -23 -17 c-33 -24 -55 -13 -42 21 6 15 8 29 6 32
-3 3 -8 -4 -12 -14 -3 -10 -8 -26 -11 -34 -9 -23 -2 -74 11 -82 7 -5 5 -8 -6
-8 -22 0 -28 11 -30 53 -1 27 -7 36 -30 46 -16 7 -32 10 -35 7 -4 -3 1 -6 10
-6 9 0 17 -4 17 -10 0 -5 7 -10 16 -10 8 0 13 -4 10 -9 -3 -5 -16 -7 -29 -4
-18 5 -20 3 -9 -8 7 -8 18 -14 25 -14 6 0 12 -11 12 -25 0 -19 -5 -24 -18 -22
-15 3 -17 -1 -12 -20 4 -13 12 -25 17 -26 5 -2 3 -11 -4 -20 -11 -13 -10 -15
5 -9 10 4 28 7 38 7 11 0 18 4 14 9 -3 5 -1 12 4 15 5 3 11 -4 15 -17 8 -31 7
-44 -3 -29 -6 10 -19 11 -46 6 l-37 -7 5 -43 c2 -25 0 -44 -5 -44 -5 0 -8 28
-7 62 2 43 -1 63 -10 66 -8 3 -12 -5 -10 -24 4 -50 -1 -74 -13 -74 -8 0 -13
-13 -12 -32 0 -18 6 -33 12 -33 21 0 23 -14 4 -24 -17 -9 -22 -7 -31 19 -6 17
-17 30 -27 30 -13 0 -14 -3 -5 -14 6 -8 11 -18 10 -22 -1 -5 1 -17 6 -27 10
-23 0 -33 -18 -19 -22 19 -28 2 -7 -21 18 -19 18 -21 2 -33 -11 -9 -13 -17 -7
-21 6 -5 15 -18 22 -29 11 -20 10 -21 -10 -18 -12 2 -16 2 -9 -2 6 -3 12 -12
12 -20 0 -8 5 -14 10 -14 6 0 10 -5 10 -10 0 -6 -8 -5 -20 2 -11 7 -20 18 -20
25 0 7 -4 13 -10 13 -5 0 -10 -7 -10 -15 0 -8 -4 -15 -10 -15 -5 0 -10 -5 -10
-11 0 -6 7 -9 14 -6 10 4 13 1 9 -9 -3 -7 -10 -14 -15 -14 -6 0 -5 -7 3 -16 8
-10 9 -18 3 -22 -6 -4 -11 -24 -11 -45 -1 -42 -6 -52 -22 -42 -16 9 -13 35 4
35 22 0 18 21 -5 27 -11 3 -20 9 -20 14 0 5 -8 9 -19 9 -10 0 -25 8 -32 17
-12 15 -12 16 6 9 39 -15 85 -19 85 -7 0 6 -6 11 -12 11 -9 0 -8 4 2 10 13 9
13 11 0 21 -11 8 -12 12 -2 16 20 8 13 23 -11 23 -13 0 -32 -9 -42 -20 -10
-11 -22 -17 -26 -14 -11 6 14 34 30 34 6 0 11 4 11 10 0 5 9 18 21 29 21 19
49 19 49 -1 0 -6 -7 -8 -15 -5 -8 4 -17 2 -20 -3 -4 -6 7 -10 24 -10 42 0 42
30 0 49 -27 12 -32 11 -44 -5 -11 -16 -16 -17 -27 -6 -11 11 -10 16 4 26 20
15 6 36 -24 36 -21 0 -24 -16 -5 -23 9 -4 9 -7 -1 -14 -7 -5 -17 -24 -22 -42
-8 -30 -7 -31 12 -25 19 6 19 5 -3 -25 -27 -36 -44 -39 -60 -10 -9 18 -8 24 5
31 21 12 22 42 0 34 -12 -4 -14 -1 -9 13 3 11 1 22 -5 26 -5 3 -10 14 -10 23
0 10 9 4 26 -19 l26 -34 -6 34 c-3 18 -6 39 -6 45 0 6 -5 4 -10 -4 -6 -10 -10
-11 -10 -2 0 6 -9 12 -20 12 -13 0 -20 -7 -20 -20 0 -11 -5 -20 -11 -20 -6 0
-9 7 -6 15 4 8 2 17 -3 20 -6 4 -10 -3 -10 -14 0 -13 -5 -18 -13 -15 -7 2 -24
0 -38 -6 l-24 -10 26 5 c25 4 26 3 23 -30 -1 -19 2 -35 7 -35 4 0 6 -7 3 -15
-4 -10 -2 -13 8 -10 7 3 29 -8 48 -25 39 -35 35 -38 -15 -10 -24 13 -35 16
-35 7 0 -8 -4 -7 -11 3 -8 11 -12 12 -16 3 -8 -21 -26 -15 -20 6 3 13 -2 21
-16 25 -17 4 -18 8 -8 20 7 8 22 16 34 18 20 3 20 4 -7 18 -17 9 -31 25 -33
37 -2 19 2 23 24 23 20 0 24 3 16 11 -7 7 -24 8 -43 4 -22 -5 -28 -10 -20 -15
7 -4 10 -13 6 -19 -4 -5 2 -19 14 -31 24 -24 25 -30 5 -30 -8 0 -15 -6 -15
-14 0 -8 -5 -17 -10 -19 -6 -3 -5 -4 2 -3 7 1 18 -7 24 -18 12 -25 -2 -56 -26
-56 -12 0 -13 -2 -1 -9 10 -7 6 -10 -15 -14 -46 -8 -74 -7 -74 4 0 10 9 12 50
11 l25 -1 -25 8 c-17 6 -19 9 -7 10 16 1 25 21 9 21 -9 0 -51 -28 -71 -48 -12
-12 -12 -15 0 -22 7 -5 10 -12 6 -16 -3 -4 -13 -1 -22 6 -12 10 -15 10 -15 -4
0 -9 4 -16 9 -16 5 0 7 -9 4 -20 -11 -42 -20 -27 -21 33 0 34 2 56 5 49 3 -9
12 -5 29 13 28 30 29 35 9 35 -8 0 -15 -7 -15 -15 0 -8 -6 -15 -14 -15 -22 0
-28 16 -12 30 8 6 18 25 21 41 4 16 11 29 16 29 5 0 9 5 9 11 0 7 -10 9 -24 5
-18 -4 -28 -1 -34 10 -6 11 -16 15 -27 10 -17 -6 -17 -8 1 -28 18 -20 18 -21
1 -15 -10 4 -23 7 -28 7 -5 0 -9 7 -9 16 0 11 -6 14 -20 9 -14 -5 -20 -2 -20
9 0 9 6 17 13 17 55 7 93 5 100 -5 8 -10 14 -4 20 21 1 4 -20 6 -48 5 -27 -1
-44 1 -37 4 10 5 10 9 1 20 -9 12 -4 14 32 15 24 1 50 0 58 -1 8 -1 17 3 20 8
3 5 22 12 41 16 27 5 30 4 14 -3 -28 -12 -40 -31 -25 -41 7 -4 15 -33 18 -65
5 -47 3 -60 -11 -70 -14 -11 -11 -14 26 -23 23 -6 46 -9 50 -6 13 8 -3 26 -18
20 -7 -3 -17 2 -22 12 -9 22 -9 103 2 120 4 7 1 15 -8 18 -29 11 -16 26 19 22
24 -3 35 0 35 9 0 7 -7 13 -15 13 -8 0 -15 7 -15 16 0 10 6 14 15 10 11 -4 15
2 14 22 -1 17 -3 20 -6 9 -5 -18 -23 -24 -23 -7 0 19 23 59 31 54 5 -3 9 1 9
8 0 8 -11 14 -27 13 -18 0 -29 6 -31 17 -2 13 3 18 17 18 12 0 21 6 21 15 0 8
-6 15 -14 15 -8 0 -17 6 -19 13 -4 7 -6 6 -6 -5 -1 -10 -15 -20 -39 -26 l-37
-10 32 -1 c29 -1 31 -3 28 -31 -3 -20 0 -30 9 -30 8 0 16 -6 19 -13 3 -9 -3
-13 -17 -13 -14 1 -23 10 -28 26 -5 16 -6 11 -3 -16 4 -31 0 -46 -16 -63 -24
-25 -60 -41 -92 -41 -18 0 -19 2 -7 10 9 6 10 10 3 10 -6 0 -15 -4 -18 -10 -9
-15 -35 -12 -30 3 3 6 19 20 36 29 17 10 27 22 24 28 -9 15 -19 12 -42 -10
-15 -14 -23 -16 -26 -7 -4 9 -6 9 -6 0 -1 -16 -21 -17 -21 -2 0 16 26 39 35
31 4 -4 6 -1 3 7 -8 27 -24 21 -42 -15 -14 -30 -15 -39 -4 -45 7 -5 19 -7 26
-4 6 2 12 0 12 -5 0 -6 -5 -10 -10 -10 -6 0 -6 -7 1 -19 18 -28 4 -55 -24 -47
-12 4 -44 9 -72 11 l-50 5 28 -17 c32 -21 34 -29 7 -36 -11 -3 -20 -13 -20
-22 0 -14 3 -15 14 -6 15 13 32 -1 22 -18 -4 -7 34 -31 49 -31 3 0 5 14 5 30
0 17 4 30 9 30 13 0 23 -34 15 -54 -3 -9 -1 -23 6 -31 20 -25 -5 -18 -59 17
-52 32 -79 33 -43 2 20 -16 19 -17 -27 -40 -56 -29 -81 -30 -88 -4 -3 11 -9
20 -13 20 -14 0 -19 -28 -7 -34 7 -2 5 -5 -4 -5 -21 -1 -31 23 -17 37 12 12 1
35 -13 27 -5 -4 -9 -16 -10 -28 0 -12 -3 -16 -6 -9 -5 14 -43 -27 -43 -47 0
-6 -5 -11 -11 -11 -6 0 -9 9 -6 20 6 22 -8 28 -17 8 -3 -7 -2 1 1 17 6 27 5
29 -10 16 -18 -14 -25 -6 -26 32 -2 90 -4 107 -12 107 -5 0 -9 11 -9 25 0 14
-4 25 -9 25 -18 0 -20 -16 -6 -43 12 -23 12 -27 -1 -27 -8 0 -14 5 -14 12 0 9
-3 9 -11 1 -15 -15 -3 -33 24 -33 21 -1 21 -1 3 -15 -22 -17 -56 0 -56 28 0
10 -4 26 -9 35 -10 19 -3 72 9 72 4 0 8 -6 7 -12 0 -7 1 -26 2 -43 1 -23 3
-27 11 -15 5 8 10 27 10 42 0 26 2 27 26 16 15 -7 27 -23 31 -40 5 -27 45 -50
60 -34 4 3 -3 6 -15 6 -16 0 -22 6 -22 23 1 20 2 20 11 5 13 -22 29 -23 29 -2
0 13 7 15 32 10 l31 -6 -29 25 c-26 22 -27 25 -9 26 11 1 23 1 28 0 4 0 7 6 7
15 0 11 6 14 20 9 14 -5 20 -2 20 10 0 9 5 13 10 10 6 -3 18 2 27 11 17 16 16
17 -10 11 -24 -7 -27 -5 -24 15 1 15 -3 23 -13 23 -11 0 -14 -9 -12 -34 3 -31
2 -33 -12 -22 -13 11 -24 11 -61 1 -44 -12 -59 -35 -31 -46 8 -3 17 -12 20
-19 3 -10 -3 -13 -22 -12 -16 2 -27 8 -27 17 0 8 -6 21 -13 29 -10 11 -10 15
3 25 14 10 14 14 -5 34 -19 21 -33 26 -54 23 -4 -1 -14 4 -22 10 -16 14 -19
-2 -3 -18 8 -8 4 -11 -13 -10 -20 2 -25 8 -25 29 0 18 5 24 14 21 7 -3 13 0
13 6 0 6 -7 11 -16 11 -8 0 -12 4 -9 10 7 12 -62 43 -93 41 -20 -1 -22 3 -16
22 4 12 12 25 18 29 7 5 6 8 -4 7 -20 -1 -58 -17 -42 -18 14 -1 13 -91 -1 -91
-16 0 -66 53 -71 76 -4 13 -10 24 -15 24 -5 0 -4 -13 2 -29 14 -37 3 -61 -27
-61 -23 0 -25 3 -20 29 4 17 1 32 -6 36 -10 6 -12 -7 -8 -56 3 -35 10 -65 16
-67 17 -5 15 -22 -3 -22 -8 0 -15 5 -15 10 0 6 -7 10 -16 10 -13 0 -15 6 -9
28 10 42 13 112 3 112 -4 0 -8 8 -8 18 0 14 -2 15 -10 2 -6 -10 -6 -16 0 -18
6 -2 10 -11 10 -20 0 -12 -3 -13 -12 -4 -16 16 -28 15 -28 -3 0 -8 -4 -15 -9
-15 -5 0 -8 12 -6 28 2 15 4 30 4 35 1 4 12 12 26 17 14 5 25 17 25 27 0 15
-2 16 -10 3 -9 -13 -14 -7 -11 13 0 4 -6 7 -14 7 -8 0 -15 -7 -15 -15 0 -18
-24 -30 -40 -20 -6 4 -5 12 6 22 12 12 12 18 3 23 -8 5 -9 20 -5 44 4 23 3 36
-4 36 -5 0 -10 -22 -10 -50 0 -61 -12 -64 -29 -9 -7 23 -15 38 -18 35 -10 -10
8 -74 22 -80 23 -8 18 -28 -5 -21 -11 4 -20 2 -20 -4 0 -6 14 -11 30 -11 35 0
41 -19 8 -21 -17 -1 -19 -2 -5 -6 24 -6 21 -21 -6 -26 -19 -4 -19 -4 5 -6 18
-1 28 5 31 17 4 14 5 13 6 -4 1 -16 -8 -23 -37 -31 l-37 -10 35 -2 c23 -1 31
-4 22 -10 -11 -7 -11 -9 2 -14 8 -3 17 -1 19 6 3 8 10 5 20 -8 14 -17 14 -20
1 -23 -8 -2 -21 1 -28 7 -6 5 -22 8 -34 4 -26 -6 -20 -23 6 -17 21 5 50 -12
39 -23 -5 -4 -11 -2 -15 4 -5 8 -13 8 -30 -1 -21 -11 -22 -14 -8 -25 12 -10
13 -18 5 -32 -7 -15 -6 -20 6 -24 8 -3 22 -7 31 -10 8 -3 12 -9 9 -15 -3 -5
-2 -10 4 -10 5 0 12 6 15 13 5 10 7 10 12 0 3 -7 10 -13 15 -13 6 0 8 4 4 9
-3 5 -1 12 5 16 5 3 10 -3 10 -15 0 -12 -10 -25 -25 -32 -21 -10 -28 -8 -44
11 -15 17 -20 19 -24 7 -4 -9 2 -17 14 -21 19 -6 27 -35 9 -35 -5 0 -10 5 -10
10 0 6 -4 10 -9 10 -6 0 -9 -9 -8 -20 1 -11 4 -20 8 -20 3 0 4 -11 2 -24 -3
-13 0 -27 6 -30 7 -5 11 3 11 19 0 20 4 26 18 23 9 -2 15 -11 13 -19 -2 -8 -3
-23 -3 -34 1 -10 -4 -25 -10 -33 -9 -10 -8 -16 2 -22 8 -5 11 -12 8 -16 -8 -7
-32 14 -41 36 -4 10 -6 8 -6 -7 -1 -12 4 -25 10 -28 6 -4 10 -23 9 -44 -3 -52
-2 -55 15 -41 9 7 19 10 23 6 4 -4 -3 -16 -16 -26 -13 -11 -20 -24 -16 -34 4
-10 1 -16 -7 -17 -8 0 -4 -4 9 -9 18 -8 21 -13 13 -27 -9 -18 -8 -44 2 -100
12 -58 18 -223 10 -223 -5 0 -10 23 -12 51 -1 29 -6 72 -11 97 -4 25 -6 51 -3
57 2 7 -3 19 -12 28 -8 9 -11 18 -6 21 11 7 11 58 0 71 -4 6 -9 35 -11 65 -2
46 -6 55 -20 52 -10 -2 -18 2 -18 8 0 5 6 10 14 10 8 0 16 7 20 15 3 9 -1 15
-11 15 -11 0 -13 3 -5 13 7 8 5 32 -6 75 -13 55 -13 65 -1 73 11 7 10 9 -5 9
-11 0 -16 5 -13 14 4 9 -3 17 -16 21 -22 7 -22 7 3 15 l25 8 -23 7 c-14 5 -22
15 -21 29 1 17 2 17 6 4 2 -10 11 -18 19 -18 11 0 12 4 5 19 -6 10 -8 21 -5
24 3 3 1 14 -5 24 -10 17 -10 17 -11 1 0 -10 -4 -18 -10 -18 -5 0 -10 4 -10 9
0 18 -28 19 -79 2 -28 -10 -54 -21 -57 -24 -3 -3 -12 -3 -19 -1 -7 3 -15 -2
-18 -10 -4 -9 -14 -16 -23 -16 -11 0 -14 5 -10 16 3 9 6 18 6 20 0 2 8 4 19 4
10 0 24 7 31 15 8 9 18 12 27 6 18 -9 63 -2 63 10 0 5 14 9 30 9 17 0 30 5 30
11 0 7 -9 9 -24 5 -15 -4 -28 0 -36 9 -14 16 -60 21 -60 5 0 -5 8 -13 17 -19
27 -15 10 -23 -31 -16 -34 7 -51 25 -23 25 7 0 18 9 25 20 7 11 20 20 29 20
13 0 14 3 5 12 -9 9 -17 5 -35 -15 -26 -30 -37 -34 -37 -12 0 11 -11 15 -41
15 -22 0 -38 4 -35 9 3 5 15 7 26 4 15 -4 20 0 20 16 0 12 6 21 15 21 8 0 15
-9 15 -19 0 -14 6 -19 20 -18 26 2 17 32 -18 62 -29 25 -55 18 -67 -20 -7 -18
-8 -19 -12 -2 -3 11 3 24 14 32 17 13 16 15 -12 39 -23 20 -26 26 -12 26 9 0
17 -4 17 -10 0 -5 5 -10 10 -10 6 0 10 7 10 15 0 8 -9 15 -19 15 -18 0 -35 23
-25 33 11 10 55 -19 60 -40 8 -32 32 -49 46 -35 9 9 8 12 -5 12 -10 0 -19 11
-22 28 -4 15 -11 35 -16 45 -10 19 -3 57 11 57 4 0 11 10 14 23 l6 22 15 -25
c20 -35 18 -42 -6 -35 -16 5 -20 3 -17 -6 3 -8 11 -14 19 -14 8 0 21 -5 29
-10 62 -40 95 -40 48 0 -15 13 -24 26 -20 29 3 4 -4 9 -16 13 -13 3 -22 13
-22 24 0 24 9 24 26 2 9 -14 16 -15 24 -7 9 9 4 16 -19 27 -22 11 -31 12 -31
4 0 -7 -7 -3 -15 7 -10 13 -18 16 -27 9 -7 -5 -24 -6 -38 -2 -14 4 -20 8 -15
8 6 1 16 5 24 10 12 8 12 12 -3 26 -9 10 -20 14 -24 10 -4 -4 -1 -10 6 -12 23
-9 12 -23 -13 -17 -21 5 -25 3 -25 -15 0 -14 6 -21 18 -21 10 0 23 -5 30 -12
14 -14 16 -42 2 -33 -5 3 -10 1 -10 -4 0 -6 -10 -11 -22 -12 -21 -1 -20 -2 5
-11 15 -5 27 -14 27 -19 0 -12 -27 -12 -35 1 -10 16 -33 12 -38 -7 -4 -17 -5
-17 -6 0 -1 11 -10 17 -28 18 l-28 1 32 11 c44 17 55 31 18 24 -41 -8 -59 5
-62 45 -2 42 25 104 39 90 7 -7 4 -20 -11 -40 -23 -33 -26 -42 -12 -42 5 0 11
9 14 19 3 13 17 22 41 26 39 8 48 22 16 27 -14 2 -17 7 -10 18 7 12 12 12 22
2 16 -16 29 -15 22 3 -8 20 -45 30 -54 15 -6 -9 -10 -6 -15 9 -8 26 -25 28
-25 2 0 -26 -18 -37 -26 -16 -9 23 16 65 39 65 13 0 17 5 13 16 -4 12 -1 14
13 9 11 -3 23 0 27 6 5 9 2 10 -9 6 -10 -3 -17 -2 -17 4 0 6 -4 8 -9 4 -5 -3
-12 -1 -16 5 -3 5 -15 10 -26 10 -21 0 -26 26 -6 33 6 3 2 4 -9 4 -13 -1 -20
-6 -17 -13 2 -7 -1 -15 -6 -19 -6 -3 -9 -11 -5 -16 3 -5 0 -16 -6 -24 -10 -12
-9 -15 8 -15 12 0 24 4 27 10 3 5 1 10 -4 10 -6 0 -11 5 -11 11 0 9 37 4 49
-7 5 -5 -26 -34 -37 -34 -5 0 -12 -9 -15 -20 -3 -10 -20 -26 -38 -34 -28 -12
-30 -15 -12 -15 12 -1 25 4 28 9 9 15 25 12 25 -5 0 -8 -8 -15 -17 -16 -14 0
-13 -2 5 -9 29 -12 29 -30 0 -30 -22 -1 -22 -1 -4 -15 18 -14 18 -15 -5 -24
-13 -5 -32 -12 -41 -15 -10 -3 -18 -13 -18 -23 1 -17 2 -17 13 -1 7 9 26 20
43 24 27 7 28 6 12 -9 -9 -9 -21 -17 -27 -17 -6 0 -11 -4 -11 -9 0 -5 -3 -16
-6 -25 -4 -11 0 -16 12 -16 16 0 17 2 4 11 -12 8 -10 9 10 5 14 -3 31 -6 38
-6 7 0 1 -12 -14 -27 -23 -23 -29 -25 -46 -14 -11 7 -23 10 -26 6 -4 -3 0 -10
8 -15 10 -7 11 -10 3 -10 -7 0 -13 -5 -13 -10 0 -6 11 -8 28 -4 l27 7 -27 -24
c-34 -30 -39 -79 -8 -79 11 0 20 6 20 13 0 19 13 34 38 41 19 6 25 2 38 -29
19 -45 12 -56 -16 -24 -21 24 -21 24 -15 2 7 -25 -4 -30 -24 -11 -10 11 -11
10 -6 -4 5 -12 -1 -18 -24 -23 -27 -6 -31 -11 -31 -39 0 -18 5 -37 11 -43 8
-8 8 -13 0 -17 -15 -10 -14 -63 2 -70 9 -5 9 -7 0 -12 -19 -8 -17 -64 2 -64
20 0 19 -19 -1 -27 -13 -5 -15 -27 -13 -152 2 -90 7 -149 13 -153 8 -5 7 -8
-1 -8 -9 0 -12 -99 -12 -410 l-1 -410 321 0 c287 0 322 2 337 17 16 16 17 15
20 0 4 -18 34 -19 61 -3 10 6 12 5 7 -2 -5 -8 589 -11 2254 -12 l2260 0 -4 22
c-3 13 -8 45 -11 73 -4 27 -20 106 -36 175 -39 170 -132 718 -131 772 1 10 -3
18 -9 18 -5 0 -9 -15 -9 -32 0 -18 -3 -43 -6 -55 -5 -20 -8 -20 -21 -8 -11 12
-12 23 -4 57 l10 43 -2 -37 c-1 -20 2 -40 6 -44 17 -18 -10 187 -29 218 -3 5
0 7 7 6 22 -5 28 55 24 227 -4 175 -14 265 -43 395 -9 41 -15 78 -14 82 1 4
-3 29 -8 55 -16 73 -18 113 -9 119 5 3 8 21 6 40 -3 19 -1 34 3 34 11 0 41 90
34 101 -3 5 2 19 10 30 10 15 12 28 6 45 -7 18 -5 24 8 27 16 4 16 5 0 6 -13
1 -18 10 -19 34 0 17 -2 43 -4 57 -4 32 -7 92 -6 105 2 18 21 -20 21 -42 0
-13 5 -23 11 -23 16 0 4 57 -25 122 -13 29 -24 57 -24 62 0 5 -5 12 -11 15
-11 7 25 92 41 99 4 2 8 12 8 21 0 28 12 33 32 14 11 -10 22 -13 26 -8 4 6 16
10 27 10 13 0 21 8 23 23 2 12 8 22 13 22 6 0 9 13 7 29 -1 16 4 36 11 45 7 9
10 16 5 16 -5 0 0 8 11 16 14 11 16 18 8 21 -21 8 -14 25 7 18 13 -4 27 1 42
15 15 14 30 19 45 15 18 -4 23 -1 23 14 0 11 5 23 10 26 6 3 10 -1 10 -9 0 -9
7 -16 15 -16 17 0 20 17 4 22 -7 2 -7 11 0 28 6 16 10 19 10 9 1 -21 23 -30
42 -18 11 7 8 9 -9 9 -14 0 -21 4 -17 11 4 6 13 8 21 5 27 -10 37 49 10 66 -6
5 -2 8 12 8 12 0 22 5 22 10 0 6 -7 10 -16 10 -8 0 -12 5 -9 10 4 6 14 9 23 8
9 -2 18 5 20 15 3 16 0 18 -20 12 -22 -7 -22 -6 -4 8 11 8 28 12 39 9 14 -3
18 -1 15 9 -2 7 -15 16 -29 20 -16 5 -18 7 -6 8 9 1 17 8 17 16 0 8 5 15 10
15 6 0 10 -7 10 -15 0 -8 5 -15 11 -15 6 0 9 8 7 18 -5 16 1 18 54 14 58 -4
59 -4 47 16 -7 12 -11 24 -8 27 7 6 68 -23 87 -42 11 -11 10 -13 -7 -13 -12 0
-21 -5 -21 -10 0 -6 10 -8 23 -5 12 4 35 2 49 -4 19 -7 28 -7 32 2 3 7 8 2 11
-10 8 -27 25 -21 25 8 0 16 5 19 19 14 13 -4 26 2 39 16 11 11 25 18 31 15 5
-4 13 0 18 8 5 9 29 16 63 19 48 4 56 2 56 -13 0 -11 -6 -16 -16 -13 -13 4
-13 3 0 -9 8 -7 16 -22 17 -33 1 -11 5 -33 8 -50 3 -16 8 -86 11 -155 3 -69
10 -140 16 -159 6 -19 10 -100 10 -180 -1 -80 4 -198 9 -261 6 -63 13 -173 15
-245 1 -71 7 -160 13 -196 6 -36 11 -99 10 -140 0 -41 4 -100 9 -133 5 -32 8
-87 7 -122 -1 -35 1 -64 5 -64 4 0 8 -23 9 -52 1 -28 5 -56 10 -62 9 -12 8
-28 -5 -61 -5 -14 3 -10 29 14 l37 35 2 -65 c5 -135 6 -165 12 -213 17 -142
50 -919 42 -1001 -2 -22 -1 -44 2 -50 9 -15 13 -77 6 -94 -11 -26 -11 -51 -1
-58 5 -3 3 -9 -4 -14 -8 -5 415 -9 964 -9 l978 0 -3 150 c-2 95 1 150 7 150 6
0 4 4 -4 9 -10 6 -12 20 -8 45 3 20 2 34 -2 32 -4 -3 -9 16 -10 42 -3 92 -10
205 -15 246 -3 22 -8 115 -11 206 -6 177 -18 346 -35 475 -6 44 -17 132 -25
195 -8 63 -17 126 -20 140 -3 14 -8 45 -11 70 -3 25 -12 77 -20 115 -8 39 -17
102 -20 140 -3 39 -15 102 -26 140 -11 39 -24 104 -29 145 -12 102 -17 119
-43 160 -12 19 -27 58 -33 85 -6 28 -20 77 -31 110 -11 33 -30 93 -43 133 -31
101 -80 176 -135 208 -24 14 -48 23 -53 20 -5 -4 -21 -2 -35 4 -15 5 -70 17
-124 25 -53 9 -132 26 -174 38 l-76 22 -7 43 c-3 24 -17 80 -31 124 -28 95
-28 91 -11 82 10 -6 10 -4 0 7 -21 22 -15 33 8 13 19 -17 18 -14 -4 31 -29 58
-39 122 -18 117 8 -2 11 3 8 10 -3 7 -8 21 -12 31 -5 11 -2 17 6 18 8 0 4 4
-8 9 -13 5 -22 17 -22 27 1 17 2 17 6 1 2 -10 8 -18 13 -18 5 0 7 7 4 15 -4 8
0 22 7 31 9 11 10 18 2 22 -6 4 -11 25 -11 47 0 22 -6 66 -15 99 l-16 58 26
-23 26 -24 -26 40 c-28 41 -34 65 -17 65 6 0 10 4 10 10 0 5 -6 7 -14 4 -7 -3
-16 2 -20 11 -14 37 -36 147 -30 156 3 5 0 9 -5 9 -6 0 -10 17 -10 38 1 25 3
29 6 12 2 -14 8 -34 13 -45 16 -38 30 -88 30 -111 0 -13 5 -24 11 -24 7 0 9 9
6 23 -4 12 -11 56 -18 97 -7 41 -15 80 -20 85 -7 10 -21 78 -23 120 -1 11 -7
31 -15 43 -7 13 -10 26 -7 29 3 3 8 -2 12 -11 3 -9 10 -16 16 -16 5 0 1 12
-10 28 -11 15 -25 45 -32 67 -7 22 -17 48 -22 59 -7 13 -6 16 3 10 9 -5 10 -2
4 12 -4 10 -10 33 -13 49 -2 17 -8 35 -12 40 -4 6 -10 27 -14 48 -4 20 -11 37
-17 37 -11 0 -3 -38 17 -89 8 -19 12 -36 10 -39 -6 -6 -31 55 -39 95 -4 18 -2
35 4 39 6 4 4 15 -6 30 -9 14 -13 29 -10 34 3 5 1 11 -4 14 -6 4 -5 18 2 36 8
22 8 33 0 41 -9 9 -11 6 -7 -12 4 -21 3 -22 -4 -4 -5 11 -6 30 -1 43 9 23 -5
32 -14 10 -5 -11 -11 49 -10 89 0 6 -5 9 -12 6 -10 -3 -11 5 -4 38 11 49 5 89
-19 117 -46 54 -52 63 -50 70 1 4 -3 25 -10 47 -6 22 -13 54 -16 70 -7 44 -27
96 -35 91 -4 -3 -7 4 -8 14 -1 10 -20 46 -43 79 -23 34 -43 73 -45 87 -1 14
-8 31 -15 37 -10 10 -10 7 0 -13 10 -20 10 -23 0 -13 -7 7 -14 20 -15 30 0 10
-17 45 -36 78 -19 33 -41 81 -48 108 -8 26 -18 50 -23 53 -4 3 -6 10 -3 15 4
5 -1 12 -9 15 -9 3 -21 24 -26 45 -6 21 -15 39 -20 39 -6 0 -10 5 -10 11 0 6
-30 47 -66 92 -81 102 -100 137 -40 75 57 -58 60 -52 6 9 -22 25 -40 50 -40
54 0 5 -6 6 -13 3 -8 -3 -20 2 -27 11 -11 13 -10 14 6 9 18 -7 18 -6 -1 17
-11 13 -24 29 -30 34 -19 17 -77 106 -73 111 3 2 -15 25 -39 51 -24 26 -41 53
-38 60 3 9 0 11 -6 7 -6 -4 -14 -2 -18 3 -14 23 -89 110 -136 158 -65 68 -130
118 -180 140 -22 9 -58 25 -80 35 -68 32 -248 87 -340 106 -11 2 -51 5 -90 5
-38 1 -74 5 -80 9 -5 3 -37 3 -70 -2z m453 -607 c9 -5 31 -15 49 -22 17 -7 30
-16 28 -19 -2 -3 12 -7 31 -7 19 -1 41 -6 48 -12 8 -7 18 -11 22 -10 21 4 28
-2 14 -12 -11 -8 -1 -9 39 -6 49 4 105 -11 121 -33 3 -4 15 -10 28 -14 12 -4
27 -16 32 -27 6 -10 17 -19 25 -19 8 0 15 -7 15 -15 0 -9 8 -25 19 -36 16 -17
32 -47 104 -194 11 -22 28 -57 39 -77 11 -21 17 -42 14 -47 -3 -5 -2 -11 2
-13 9 -3 77 -167 71 -171 -2 -2 -16 -9 -31 -17 -16 -7 -28 -20 -28 -29 0 -13
-2 -13 -9 -3 -6 10 -10 8 -14 -8 -3 -14 -10 -19 -17 -15 -9 6 -9 10 1 16 9 6
10 9 2 9 -6 0 -18 -7 -26 -15 -8 -8 -18 -11 -22 -7 -5 4 -6 0 -3 -8 3 -9 -4
-23 -18 -33 -21 -16 -23 -16 -17 -1 5 14 3 15 -15 5 -12 -7 -22 -8 -22 -4 0 3
-13 -6 -30 -22 -16 -16 -30 -25 -30 -21 0 12 -47 -38 -53 -57 -6 -15 -2 -16
21 -11 15 4 33 11 40 17 7 5 15 7 19 3 3 -3 14 1 24 10 17 16 37 22 75 23 12
1 32 10 45 22 38 34 129 60 129 37 0 -4 7 -8 15 -8 8 0 17 -10 19 -22 5 -20 4
-38 -3 -103 -1 -6 -35 -9 -83 -8 -76 1 -78 1 -28 -6 77 -11 97 -19 103 -41 7
-27 -8 -35 -78 -36 -76 -2 -156 -37 -210 -93 -30 -32 -36 -44 -27 -53 9 -9 12
-8 12 5 0 9 4 17 9 17 5 0 16 3 24 6 9 3 17 -1 19 -11 2 -13 18 -17 85 -18
l81 -2 12 36 c7 20 9 46 5 58 -7 24 3 27 30 7 11 -8 20 -27 21 -45 1 -25 -3
-32 -23 -37 -32 -8 -23 -30 11 -26 14 1 26 -2 26 -7 0 -6 12 -21 27 -35 22
-21 24 -27 14 -40 -10 -11 -10 -16 -2 -16 7 0 34 -22 60 -49 39 -40 54 -66 75
-128 44 -133 31 -289 -30 -354 -13 -14 -24 -30 -24 -37 0 -17 -26 -15 -44 3
-8 8 -18 15 -23 15 -12 0 -83 68 -83 80 0 11 -51 60 -62 60 -13 0 -9 -17 16
-72 28 -62 56 -143 56 -162 0 -18 48 -30 65 -16 18 15 58 9 66 -9 14 -35 -29
-245 -66 -321 -67 -140 -95 -199 -101 -220 -18 -64 -96 -150 -135 -150 -10 0
-19 -4 -19 -8 0 -18 -148 -53 -195 -47 -16 2 -59 5 -93 6 -35 0 -78 7 -95 14
-18 7 -37 11 -43 8 -6 -2 -17 3 -24 12 -7 8 -21 15 -31 15 -11 0 -19 5 -19 10
0 6 -11 10 -25 10 -14 0 -25 4 -25 9 0 5 -10 13 -22 17 -28 9 -67 36 -68 47 0
19 -27 32 -66 33 -23 1 -53 8 -67 15 -111 60 -147 84 -147 96 0 8 -9 17 -20
20 -28 7 -42 63 -21 80 13 10 13 14 3 21 -7 5 -10 16 -7 25 4 8 2 24 -4 35 -5
10 -11 39 -12 65 -2 36 -10 53 -36 82 -18 20 -33 41 -33 46 0 6 -4 8 -9 5 -5
-4 -12 7 -16 24 -4 17 -13 30 -21 30 -9 0 -13 4 -10 8 3 5 -17 32 -44 61 -28
30 -50 60 -50 67 0 8 -7 14 -15 14 -18 0 -20 20 -2 20 6 1 2 9 -10 19 -13 11
-23 24 -23 30 0 6 -5 11 -11 11 -6 0 -9 7 -5 15 3 9 0 15 -10 15 -23 0 -53 41
-54 73 0 15 -6 30 -14 33 -8 3 -17 23 -21 45 -4 21 -10 37 -14 35 -4 -3 -7 4
-7 14 0 10 4 16 8 14 13 -8 9 31 -4 44 -9 9 -8 16 5 30 9 10 17 23 17 28 0 18
55 72 80 79 19 5 21 4 10 -4 -12 -8 -9 -12 18 -17 20 -4 32 -12 32 -23 0 -14
2 -14 11 -1 8 12 12 12 16 2 3 -9 16 -11 40 -6 26 5 34 4 29 -5 -4 -6 -2 -11
5 -11 6 0 17 -6 23 -14 18 -22 155 -7 170 19 6 11 17 25 25 31 17 13 -2 30
-21 18 -7 -4 -8 -3 -4 4 4 7 18 12 32 12 13 0 42 6 65 13 44 13 56 36 45 88
-6 30 -5 30 30 25 19 -4 50 -17 68 -31 36 -27 114 -38 86 -12 -28 26 -145 69
-201 74 -39 4 -72 0 -110 -12 -67 -22 -119 -28 -113 -12 6 16 90 73 137 92 82
34 146 28 195 -18 13 -12 25 -21 28 -19 19 11 52 -1 62 -24 7 -15 17 -22 24
-18 6 4 8 3 5 -3 -3 -5 2 -16 12 -24 15 -14 18 -13 28 7 9 19 8 22 -6 18 -9
-3 -6 1 6 7 20 11 26 49 11 65 -4 3 -4 21 -2 39 2 19 0 36 -6 40 -16 10 1 35
25 35 12 0 30 9 40 20 15 17 16 20 3 20 -9 0 -18 9 -21 21 -3 12 -10 18 -16
14 -6 -3 -11 1 -11 10 0 11 -5 15 -15 11 -10 -4 -19 2 -24 16 -7 19 -8 20 -15
3 -6 -16 -8 -16 -26 5 -17 19 -20 20 -20 6 0 -16 -2 -16 -22 -2 -17 12 -25 13
-37 3 -12 -9 -13 -9 -7 1 4 6 3 12 -3 12 -5 0 -17 3 -27 7 -12 5 -15 3 -9 -6
6 -10 3 -11 -13 -2 -15 8 -22 8 -25 -2 -4 -9 -7 -9 -18 1 -7 6 -20 12 -28 12
-14 0 -14 -1 -1 -10 10 -7 11 -10 2 -10 -7 0 -15 7 -18 15 -7 16 -84 22 -84 6
0 -9 -63 -26 -87 -24 -7 0 -10 -3 -7 -8 3 -5 -17 -7 -45 -5 -48 4 -51 3 -96
-42 -37 -39 -47 -44 -55 -32 -15 23 -12 40 5 34 8 -4 15 -2 15 4 0 6 -6 12
-12 15 -10 3 -10 7 -2 18 6 8 15 28 19 44 7 27 8 28 15 10 6 -13 8 -2 6 32 -1
29 2 49 7 46 5 -3 6 -16 3 -29 -4 -15 -2 -24 5 -24 6 0 13 9 16 20 3 11 10 20
15 20 5 0 7 4 3 9 -3 5 6 26 20 46 16 25 23 47 21 68 -2 17 3 42 10 55 7 14
10 38 7 55 -4 19 -1 32 8 38 10 6 10 9 2 9 -7 0 -13 5 -13 10 0 6 6 10 13 10
8 0 12 17 11 55 -1 31 3 55 8 55 6 0 7 10 3 23 -4 12 -6 31 -6 42 0 11 -5 30
-11 43 -9 17 -9 28 -1 41 8 13 9 21 1 29 -13 13 33 87 64 103 10 6 16 15 12
21 -4 6 -1 9 7 6 8 -3 21 -1 31 3 13 7 16 4 13 -18 -1 -15 -8 -29 -14 -31 -6
-2 -9 -8 -5 -13 9 -15 21 -10 29 14 4 12 8 24 9 27 6 18 31 56 40 62 6 4 31 7
55 6 27 0 49 5 55 13 13 17 86 25 86 10 0 -6 7 -11 16 -11 10 0 14 6 11 14 -5
12 1 14 29 11 19 -3 42 -9 52 -14z m-298 -971 c0 5 9 6 21 3 11 -3 18 -11 15
-18 -2 -7 1 -18 7 -24 8 -8 7 -11 -6 -11 -9 0 -17 -4 -17 -10 0 -5 7 -10 16
-10 14 0 14 -1 0 -16 -9 -8 -14 -19 -12 -23 3 -4 -16 -13 -42 -21 -56 -16
-156 -61 -160 -72 -2 -4 -8 -8 -14 -8 -6 0 -16 -7 -22 -15 -6 -8 -21 -16 -34
-18 -13 -2 -32 -11 -43 -21 -16 -13 -24 -15 -35 -5 -7 6 -11 16 -8 21 3 5 0 9
-7 7 -38 -5 -46 1 -41 29 2 15 11 34 19 43 11 14 12 18 1 22 -9 4 -7 6 4 6 12
1 15 6 11 18 -4 10 -2 14 5 9 6 -3 18 7 28 24 10 16 22 30 27 30 6 0 18 10 28
22 11 11 19 18 19 15 0 -4 12 -1 28 5 36 15 139 25 180 17 17 -4 32 -3 32 1z
m-4381 -4070 c6 0 11 -17 11 -40 0 -31 4 -40 18 -40 11 0 13 -3 5 -8 -7 -4
-11 -26 -10 -49 1 -42 -7 -62 -19 -50 -4 4 -1 13 6 22 11 13 10 14 -6 8 -10
-4 -25 -13 -33 -21 -12 -12 -12 -15 0 -22 7 -5 10 -12 6 -17 -5 -4 -12 -1 -17
7 -7 11 -12 9 -29 -11 -17 -19 -20 -21 -21 -7 0 12 -5 15 -16 11 -8 -3 -13
-11 -10 -19 6 -17 -14 -24 -36 -12 -10 5 -18 5 -18 0 0 -5 -6 -9 -12 -9 -7 0
-23 -3 -35 -7 -14 -4 -23 -3 -23 3 0 5 9 13 20 16 28 9 28 84 1 109 -22 20
-18 48 5 39 19 -7 49 -63 34 -63 -6 0 -8 -5 -4 -11 4 -7 7 -21 8 -33 1 -14 9
-22 25 -24 15 -3 21 0 16 8 -4 6 -13 9 -21 6 -8 -3 -14 -1 -14 4 0 6 4 10 9
10 5 0 7 9 4 20 -3 12 0 20 6 20 7 0 9 5 6 10 -4 6 -3 19 1 28 4 9 8 31 9 47
1 17 5 41 9 55 6 22 5 21 -10 -5 -16 -28 -21 -44 -23 -85 -1 -13 -2 -13 -11 0
-5 8 -7 25 -3 37 3 14 1 23 -6 23 -6 0 -11 9 -11 20 0 11 5 20 10 20 6 0 10
-8 10 -17 0 -12 7 -6 21 16 l20 34 29 -32 c17 -18 27 -38 23 -47 -3 -8 2 -23
11 -33 13 -14 16 -28 11 -55 -4 -20 -4 -36 0 -36 11 0 35 28 35 40 0 6 5 8 10
5 6 -3 10 1 10 9 0 8 -7 19 -15 24 -13 7 -14 14 -5 37 6 15 8 30 6 32 -9 10
-26 -9 -26 -28 0 -10 -4 -19 -10 -19 -15 0 -12 33 5 57 11 15 12 22 3 25 -7 3
-8 9 -3 18 6 10 10 10 20 -3 7 -10 17 -17 24 -17z m-13 -291 c3 -5 -8 -6 -24
-3 -17 4 -32 1 -36 -5 -5 -7 3 -11 21 -12 15 0 22 -3 16 -6 -16 -6 -17 -23 -2
-23 18 0 39 27 39 51 0 27 13 17 15 -12 1 -12 -6 -26 -17 -32 -22 -14 -24 -43
-2 -51 8 -3 12 -10 9 -16 -4 -6 -11 -8 -16 -5 -5 4 -9 -1 -9 -10 0 -9 -6 -15
-12 -12 -7 2 -21 0 -30 -5 -14 -7 -18 -4 -18 12 0 15 7 20 27 20 21 0 24 3 15
12 -10 10 -17 10 -32 0 -17 -10 -20 -10 -20 3 0 16 -16 20 -24 6 -3 -5 1 -11
9 -15 17 -6 20 -33 4 -38 -5 -2 -7 -11 -4 -21 4 -9 11 -14 16 -11 5 3 9 -1 9
-9 0 -10 -8 -13 -23 -10 -19 4 -23 10 -19 29 5 30 -1 30 -28 2 -16 -17 -23
-19 -32 -10 -10 10 -8 14 10 19 27 7 24 24 -6 38 -22 10 -31 35 -12 35 6 0 10
5 10 10 0 14 -28 12 -33 -2 -2 -7 -8 -10 -12 -6 -9 8 18 38 35 38 6 0 8 5 5
10 -3 6 -1 10 5 10 7 0 9 -8 5 -20 -5 -15 -3 -18 9 -14 9 3 16 2 16 -4 0 -5
-7 -12 -15 -16 -18 -7 -20 -27 -2 -22 6 1 8 1 4 -2 -8 -4 22 -31 35 -32 4 0 5
14 2 30 -5 20 -3 30 6 30 7 0 10 7 6 15 -3 9 0 15 9 15 8 0 15 -6 15 -14 0 -8
7 -16 15 -20 9 -3 15 0 15 9 0 8 -4 15 -9 15 -19 0 -24 43 -7 56 17 12 52 8
62 -7z"/>
<path d="M5561 4703 c0 -7 -4 -12 -8 -11 -5 1 -23 -12 -42 -30 -18 -18 -26
-29 -16 -26 12 5 16 2 15 -12 -1 -10 -1 -21 0 -24 1 -3 3 -26 4 -52 2 -59 32
-87 94 -89 137 -3 220 -1 232 6 10 6 12 4 7 -9 -6 -14 -3 -17 9 -12 8 3 18 6
20 6 3 0 0 9 -6 20 -12 22 -1 27 17 9 8 -8 21 0 48 30 37 41 61 50 158 60 5 1
6 5 2 10 -3 5 6 18 20 29 30 24 31 27 8 29 -10 1 -30 5 -44 8 -22 6 -29 1 -47
-27 -12 -18 -22 -29 -22 -25 0 4 -9 3 -19 -3 -23 -12 -83 -2 -78 14 5 15 -16
34 -47 42 -14 3 -26 10 -26 14 0 10 -57 -17 -65 -30 -3 -5 -12 -7 -20 -3 -8 3
-15 0 -15 -7 0 -7 -8 -9 -19 -5 -11 3 -22 1 -25 -4 -8 -12 -35 -3 -54 16 -18
18 -30 16 -35 -4 -3 -12 -5 -9 -6 8 0 15 -7 29 -15 32 -8 3 -16 16 -19 29 -2
13 -5 17 -6 11z"/>
<path d="M6105 4378 c-16 -6 -46 -17 -65 -25 -31 -14 -64 -20 -135 -24 -36 -2
-110 14 -117 25 -6 8 -11 7 -17 -3 -8 -12 -12 -12 -25 -2 -12 10 -20 10 -29 3
-7 -6 -22 -11 -32 -11 -22 1 -117 -32 -125 -43 -3 -3 -18 -10 -33 -13 -34 -9
-117 -86 -117 -109 0 -18 -3 -17 70 -20 31 -2 67 -10 80 -19 14 -8 45 -16 70
-17 72 -4 78 -2 76 23 -1 18 -6 23 -20 19 -13 -3 -17 -1 -12 6 4 7 2 12 -5 12
-7 0 -9 3 -5 8 9 9 13 9 79 11 36 1 47 4 37 10 -8 6 -17 8 -21 5 -4 -2 -15 6
-23 18 -15 21 -15 23 1 30 10 3 43 7 73 8 50 1 111 11 238 38 37 8 43 7 41 -7
-3 -31 1 -42 13 -35 6 4 17 -1 25 -11 7 -11 13 -13 13 -7 0 7 7 12 16 12 8 0
12 5 9 11 -8 12 22 38 45 39 8 0 24 7 34 15 25 19 13 33 -41 52 -44 15 -56 15
-98 1z"/>
<path d="M404 1671 c4 -31 3 -52 -4 -56 -15 -9 -2 -25 21 -25 10 0 19 -4 19
-9 0 -5 3 -16 6 -25 4 -12 0 -16 -15 -16 -17 0 -21 -6 -21 -35 0 -19 5 -35 10
-35 18 0 10 -18 -10 -23 -21 -5 -42 14 -22 21 16 5 15 29 0 35 -10 4 -10 6 0
6 11 1 10 4 -1 15 -8 9 -24 12 -36 9 -13 -3 -21 -1 -21 8 0 8 -3 10 -10 3 -11
-11 -2 -54 12 -54 6 0 8 7 4 15 -4 10 1 15 15 15 15 0 19 -5 15 -16 -3 -9 -6
-22 -6 -30 0 -8 -10 -14 -22 -15 -16 0 -10 -5 20 -16 23 -8 42 -21 42 -29 0
-19 -7 -18 -32 6 -27 25 -41 26 -36 3 2 -10 16 -24 31 -31 15 -7 29 -23 32
-35 5 -17 14 -22 41 -24 18 -1 34 3 34 8 0 5 -10 9 -23 9 -14 0 -23 6 -24 18
-1 9 -5 29 -9 45 -4 18 -2 27 6 27 7 0 9 -8 5 -19 -3 -12 0 -21 10 -25 8 -3
15 -12 15 -21 0 -21 17 -19 22 3 3 10 -4 29 -14 42 -15 19 -17 25 -6 28 42 11
44 13 26 23 -10 5 -15 16 -12 24 4 8 1 15 -5 15 -6 0 -11 -4 -11 -10 0 -5 -4
-10 -10 -10 -16 0 -12 30 5 36 12 5 14 20 12 70 -3 60 -17 104 -17 55 0 -12
-4 -19 -10 -16 -18 11 -11 35 13 45 17 7 18 9 4 9 -10 1 -20 8 -23 16 -4 8
-11 15 -16 15 -7 0 -8 -18 -4 -49z"/>
<path d="M10175 831 c-3 -5 4 -12 15 -16 21 -7 24 -14 14 -39 -7 -18 -34 -22
-34 -4 0 6 -9 1 -20 -12 -24 -28 -25 -34 -2 -56 15 -15 17 -15 20 -2 2 10 13
15 32 14 38 -1 39 -12 3 -21 -27 -6 -27 -7 -9 -20 10 -8 18 -26 18 -42 0 -15
4 -33 10 -40 6 -7 5 -14 -2 -18 -5 -3 -10 1 -10 9 0 9 -4 16 -10 16 -14 0 -12
27 3 33 6 3 2 6 -9 6 -15 1 -24 -7 -28 -24 -4 -16 -11 -23 -18 -19 -9 6 -9 9
0 12 19 6 14 34 -5 30 -10 -2 -18 -8 -18 -15 0 -21 -12 -24 -18 -3 -4 17 1 21
34 26 21 4 39 10 39 14 0 16 -25 17 -56 2 -24 -11 -36 -12 -50 -4 -17 10 -17
11 7 12 15 0 32 7 39 15 10 12 10 15 -4 15 -9 0 -16 5 -16 10 0 6 -7 10 -15
10 -9 0 -12 -6 -9 -15 8 -19 -7 -19 -32 0 -17 13 -17 14 -1 15 21 0 24 40 2
40 -8 0 -15 -9 -15 -20 0 -11 -4 -20 -10 -20 -11 0 -14 13 -10 44 1 11 -3 15
-9 12 -6 -4 -11 -18 -11 -31 0 -13 -6 -26 -12 -28 -7 -3 1 -6 18 -6 34 -1 51
-30 31 -50 -8 -8 -4 -11 15 -11 15 0 30 -5 34 -12 4 -6 3 -8 -3 -5 -6 4 -16 0
-23 -8 -7 -8 -9 -16 -4 -17 5 0 14 -2 19 -3 6 -2 16 -3 24 -4 22 -2 2 -16 -22
-16 -19 0 -22 -5 -19 -40 2 -38 2 -39 -11 -17 -7 13 -12 41 -10 63 2 21 -2 39
-7 39 -6 0 -10 -16 -10 -35 0 -22 -6 -38 -15 -41 -8 -3 -17 -14 -20 -25 -7
-23 -25 -25 -25 -4 0 8 -7 15 -16 15 -8 0 -12 5 -8 11 3 6 -5 3 -20 -6 -22
-15 -27 -15 -31 -2 -4 9 -20 14 -46 14 -26 0 -36 -3 -27 -8 7 -5 23 -9 36 -9
29 0 30 -39 2 -65 -24 -22 -38 -14 -15 9 15 14 15 18 1 31 -8 8 -19 15 -25 15
-14 0 -14 -17 -1 -25 6 -4 4 -12 -5 -21 -8 -9 -15 -22 -15 -30 0 -8 -12 -26
-26 -39 -21 -20 -25 -31 -21 -55 4 -17 2 -30 -3 -30 -16 0 -11 62 9 103 9 20
20 35 23 32 3 -3 6 6 6 20 0 14 -4 25 -9 25 -5 0 -9 -7 -9 -15 0 -8 -4 -15
-10 -15 -5 0 -13 -12 -16 -26 -6 -23 -10 -25 -40 -19 -21 3 -34 2 -34 -5 0 -5
9 -10 19 -10 23 0 40 -22 23 -28 -7 -2 -12 -16 -11 -30 l1 -27 7 25 c7 27 18
18 17 -15 -1 -11 -6 -19 -13 -18 -6 2 -15 -6 -18 -17 -6 -20 -35 -28 -35 -10
0 6 7 10 15 10 11 0 15 12 15 50 0 50 -9 60 -38 41 -16 -10 -14 -102 2 -113 8
-6 6 -12 -4 -19 -10 -7 -11 -12 -3 -15 8 -4 9 -15 2 -37 -6 -22 -5 -33 3 -38
7 -4 -3 -7 -21 -7 -22 1 -39 -5 -47 -16 -12 -17 -40 -13 -29 4 6 9 -25 23 -33
15 -3 -3 0 -5 7 -5 8 0 9 -5 1 -19 -13 -26 -14 -52 0 -31 8 13 10 13 10 -1 0
-9 -3 -18 -6 -22 -10 -9 -34 4 -34 19 0 8 -4 14 -10 14 -5 0 -10 -6 -10 -13 0
-8 -9 -24 -20 -37 -11 -12 -17 -27 -13 -33 4 -6 10 -3 14 9 5 14 8 15 8 4 1
-9 -4 -21 -11 -28 -6 -6 -8 -15 -4 -19 10 -11 218 -14 211 -3 -3 4 -15 6 -28
4 -21 -4 -21 -4 2 6 22 10 22 11 7 34 -13 20 -13 25 -1 30 8 3 12 0 9 -7 -7
-19 21 -51 36 -42 10 6 9 11 -5 22 -17 12 -18 13 -1 13 9 0 14 5 11 10 -3 6 3
10 14 10 18 0 19 -2 5 -30 -9 -16 -13 -34 -9 -40 4 -6 -1 -7 -11 -3 -12 4 -15
3 -10 -5 5 -9 85 -12 292 -12 l285 0 -2 335 c-1 233 -5 335 -12 335 -7 0 -7 4
1 12 7 7 12 21 12 31 0 15 -5 18 -25 13 -30 -8 -31 1 -5 34 24 31 25 43 2 63
-21 19 -28 21 -37 8z"/>
</g>
</svg>
