<?xml version="1.0" standalone="no"?>
<!DOCTYPE svg PUBLIC "-//W3C//DTD SVG 20010904//EN"
 "http://www.w3.org/TR/2001/REC-SVG-20010904/DTD/svg10.dtd">
<svg version="1.0" xmlns="http://www.w3.org/2000/svg"
 width="1182.000000pt" height="1182.000000pt" viewBox="0 0 1182.000000 1182.000000"
 preserveAspectRatio="xMidYMid meet">

<g transform="translate(0.000000,1182.000000) scale(0.100000,-0.100000)"
fill="#000000" stroke="none">
<path d="M6619 9731 c-28 -29 -29 -32 -29 -130 l0 -101 -1524 0 -1525 0 -28
-24 c-25 -21 -28 -32 -31 -99 -4 -71 -3 -76 26 -108 l30 -34 3139 -3 c2973 -2
3140 -1 3173 15 19 10 40 29 47 43 15 30 16 92 3 142 -21 74 114 68 -1577 68
l-1523 0 0 85 c0 135 -26 175 -110 175 -33 0 -48 -6 -71 -29z"/>
<path d="M2380 8644 c-8 -8 -33 -27 -57 -41 -40 -23 -52 -25 -116 -20 -81 5
-150 -9 -225 -47 -67 -34 -109 -79 -148 -160 -29 -59 -41 -73 -81 -95 -73 -40
-98 -96 -98 -226 0 -97 1 -103 42 -187 23 -48 61 -115 84 -150 51 -75 161
-192 226 -238 l46 -34 -5 30 c-4 16 -12 64 -19 106 -12 74 -14 77 -31 61 -23
-20 -62 -6 -106 40 -63 65 -77 151 -32 192 18 17 21 17 45 1 14 -9 38 -34 53
-56 21 -28 32 -36 43 -30 14 9 13 15 -15 80 -5 12 12 22 81 44 49 16 93 31
100 33 6 2 14 -5 18 -17 14 -45 44 -60 122 -60 82 0 109 16 120 70 11 57 52
69 97 29 l35 -30 -2 43 -2 43 83 3 c94 3 107 -3 116 -53 12 -61 -4 -75 -87
-75 -44 0 -78 5 -87 13 -10 8 -9 4 2 -13 14 -23 22 -25 88 -25 64 0 74 3 92
25 25 31 20 102 -8 131 -28 27 -183 32 -211 7 -11 -10 -32 -18 -47 -18 -15 0
-36 -4 -46 -10 -15 -8 -20 -6 -25 9 -8 25 -55 41 -121 41 -71 0 -103 -14 -117
-50 -10 -26 -23 -33 -114 -64 l-103 -35 0 50 c0 29 8 65 19 88 11 20 26 73 34
116 20 103 37 124 123 153 65 23 74 23 155 12 47 -7 103 -10 125 -6 131 20
119 21 148 -17 14 -18 34 -65 44 -103 13 -54 18 -63 20 -40 6 53 -18 157 -64
269 -55 136 -74 167 -122 201 -44 30 -55 32 -72 10z m18 -626 c17 -17 15 -69
-4 -96 -13 -19 -24 -22 -88 -22 -43 0 -77 5 -84 12 -7 7 -12 30 -12 53 0 23 5
46 12 53 7 7 42 12 88 12 46 0 81 -5 88 -12z"/>
<path d="M2267 7983 c-10 -9 -8 -33 2 -33 5 0 11 9 14 20 5 20 -3 26 -16 13z"/>
<path d="M8780 8470 l0 -50 50 0 50 0 0 50 0 50 -50 0 -50 0 0 -50z"/>
<path d="M8040 8310 l0 -60 195 0 195 0 0 60 0 60 -195 0 -195 0 0 -60z"/>
<path d="M5240 8190 c-8 -5 -75 -10 -147 -10 -110 0 -133 -3 -133 -15 0 -12
21 -15 112 -17 l112 -3 -560 -411 c-307 -225 -589 -432 -626 -459 -38 -27 -68
-51 -68 -53 0 -2 9 -17 21 -33 19 -27 21 -28 44 -13 12 8 25 23 28 34 5 20 85
82 131 102 16 7 268 198 560 425 l531 412 261 1 c198 0 264 -3 272 -12 5 -7
67 -107 136 -223 83 -137 124 -215 119 -225 -12 -26 -7 -71 10 -87 39 -39 117
-5 117 51 0 26 -38 66 -63 66 -18 0 -45 39 -202 298 l-98 162 -258 0 c-161 0
-260 4 -264 10 -8 12 -16 12 -35 0z"/>
<path d="M7459 8028 c-51 -84 -103 -170 -115 -190 l-23 -37 -93 49 c-156 81
-371 140 -515 140 l-53 0 0 -154 0 -153 75 -7 c157 -14 331 -79 458 -170 80
-56 193 -176 241 -253 l38 -61 81 44 c45 25 106 57 135 72 28 14 52 30 52 35
0 13 -54 101 -97 157 -48 63 -179 195 -235 237 -27 19 -48 40 -48 46 0 7 49
91 108 187 l107 175 433 3 c375 2 432 4 432 17 0 13 -57 15 -444 15 l-444 0
-93 -152z"/>
<path d="M8780 8120 l0 -50 50 0 50 0 0 50 0 50 -50 0 -50 0 0 -50z"/>
<path d="M2224 8106 c-18 -8 -35 -19 -39 -26 -13 -21 5 -24 36 -6 16 10 46 17
67 16 53 -3 56 -2 42 15 -15 18 -65 19 -106 1z"/>
<path d="M2563 8100 c-24 -10 -43 -23 -43 -28 0 -19 13 -20 43 -1 18 10 42 19
55 19 13 0 22 6 22 15 0 20 -26 19 -77 -5z"/>
<path d="M2593 7975 c-3 -9 -3 -18 0 -22 10 -10 37 6 37 22 0 20 -29 20 -37 0z"/>
<path d="M2590 7685 c0 -35 -100 -48 -167 -20 -42 18 -43 18 -43 6 0 -10 41
-27 88 -36 42 -9 108 3 127 22 17 16 20 43 5 43 -5 0 -10 -7 -10 -15z"/>
<path d="M2070 7312 c0 -7 -24 -27 -52 -46 -48 -31 -77 -39 -307 -85 -140 -28
-258 -56 -262 -63 -11 -18 -37 -172 -45 -263 -4 -44 -35 -199 -69 -345 -35
-146 -72 -308 -84 -360 -14 -62 -36 -269 -65 -600 -24 -278 -42 -507 -40 -508
6 -8 274 -45 280 -39 4 4 31 221 60 484 l53 478 55 199 c31 109 58 202 62 205
3 3 3 -21 -1 -54 -9 -92 -75 -1105 -75 -1157 0 -53 10 -64 84 -94 43 -17 51
-25 49 -45 0 -13 -6 -76 -12 -139 -15 -156 -31 -504 -31 -670 0 -151 -20 -359
-49 -525 -22 -120 -54 -764 -52 -1055 0 -135 2 -156 18 -167 11 -8 51 -13 109
-13 85 0 100 -3 173 -35 127 -56 272 -65 321 -20 15 13 20 31 20 68 0 63 -17
83 -88 103 -44 13 -70 31 -134 92 -44 42 -75 78 -70 80 6 2 4 29 -5 69 -13 63
-11 86 32 447 29 242 56 425 74 501 16 66 32 154 35 195 6 60 143 851 149 856
1 1 32 4 69 6 l66 4 7 -91 c3 -49 8 -542 10 -1095 1 -553 5 -1038 7 -1079 5
-97 11 -101 143 -101 90 0 113 -4 206 -36 158 -54 362 -61 410 -13 19 19 27
92 11 115 -11 17 -62 40 -119 54 -29 6 -72 26 -95 42 -88 63 -210 171 -200
177 7 4 4 22 -10 51 -20 45 -20 48 -9 591 11 492 14 553 32 620 16 59 25 161
44 504 14 237 25 445 25 462 0 28 6 36 39 53 l39 20 -4 72 c-13 191 -63 1312
-59 1316 2 2 36 -24 76 -58 109 -94 189 -150 213 -150 36 1 308 207 714 544
l153 127 -31 42 c-16 23 -52 70 -78 104 l-49 62 -169 -131 c-221 -173 -431
-327 -472 -346 -32 -16 -33 -15 -68 19 -20 19 -105 120 -189 224 -83 105 -161
198 -173 208 -12 11 -59 26 -114 37 -88 17 -94 20 -130 61 -21 24 -38 42 -38
39 0 -3 31 -84 69 -182 l69 -176 -24 -193 c-13 -106 -25 -194 -27 -195 -1 -2
-26 92 -55 209 -50 202 -52 214 -38 247 l14 35 -51 58 -52 58 -38 -56 -38 -55
33 -42 33 -42 16 -205 c8 -114 15 -207 13 -209 -1 -2 -52 93 -115 210 l-112
213 -39 189 c-34 168 -48 224 -48 188z"/>
<path d="M7694 6812 c-19 -13 -34 -50 -27 -69 20 -57 77 -71 117 -28 l23 25
317 0 c262 0 316 2 316 14 0 11 -57 14 -320 18 -317 4 -320 4 -336 26 -15 22
-66 30 -90 14z"/>
<path d="M5642 6350 c-30 -13 -47 -57 -32 -88 11 -25 -9 -63 -207 -384 l-54
-88 -195 0 c-166 0 -194 -2 -194 -15 0 -13 30 -15 208 -15 l207 0 140 230 c99
164 145 230 158 230 24 0 67 44 67 70 0 23 -42 70 -62 69 -7 0 -23 -4 -36 -9z"/>
<path d="M7390 6189 c-90 -124 -239 -238 -390 -298 -71 -28 -186 -54 -292 -67
l-48 -5 0 -156 0 -156 88 7 c160 13 291 48 446 119 73 34 90 38 96 26 5 -8 55
-90 112 -184 l104 -170 468 -3 c427 -2 467 -1 464 14 -3 15 -44 16 -454 15
l-450 -2 -99 163 c-54 90 -105 172 -112 184 -12 20 -9 24 44 59 75 49 249 223
298 298 21 31 36 59 34 60 -22 17 -252 157 -257 157 -4 0 -28 -28 -52 -61z"/>
<path d="M8040 5470 l0 -60 195 0 195 0 0 60 0 60 -195 0 -195 0 0 -60z"/>
<path d="M3531 4366 c-41 -23 -50 -53 -51 -164 0 -101 1 -104 29 -133 l29 -29
907 0 c722 0 906 -3 903 -12 -3 -7 -38 -123 -78 -258 -40 -135 -111 -371 -157
-525 -204 -673 -204 -676 -198 -706 13 -59 100 -90 152 -54 28 20 28 20 209
620 86 286 185 612 219 725 l63 205 1134 3 1135 2 72 -237 c40 -131 144 -474
232 -763 175 -580 170 -570 250 -570 54 0 89 34 89 88 0 21 -63 245 -139 498
-186 616 -291 967 -291 977 0 4 407 7 904 7 l905 0 28 24 c28 24 28 26 28 140
0 113 -1 116 -28 143 l-27 28 -3148 2 c-2600 2 -3151 0 -3171 -11z"/>
</g>
</svg>
